G04 #@! TF.GenerationSoftware,KiCad,Pcbnew,9.0.2+dfsg-1*
G04 #@! TF.CreationDate,2026-09-20T02:23:28+07:00*
G04 #@! TF.ProjectId,quad-tic-timer,71756164-2d74-4696-932d-74696d65722e,rev?*
G04 #@! TF.SameCoordinates,Original*
G04 #@! TF.FileFunction,Soldermask,Top*
G04 #@! TF.FilePolarity,Negative*
%FSLAX46Y46*%
G04 Gerber Fmt 4.6, Leading zero omitted, Abs format (unit mm)*
G04 Created by KiCad (PCBNEW 9.0.2+dfsg-1) date 2026-09-20 02:23:28*
%MOMM*%
%LPD*%
G01*
G04 APERTURE LIST*
G04 APERTURE END LIST*
G36*
X8459481Y-27250642D02*
G01*
X8510592Y-27256572D01*
X8528054Y-27264282D01*
X8549529Y-27268554D01*
X8572517Y-27283914D01*
X8593608Y-27293227D01*
X8608013Y-27307632D01*
X8628607Y-27321393D01*
X8642367Y-27341986D01*
X8656772Y-27356391D01*
X8666083Y-27377480D01*
X8681446Y-27400471D01*
X8685717Y-27421946D01*
X8693426Y-27439404D01*
X8699353Y-27490497D01*
X8700000Y-27493750D01*
X8700000Y-27981250D01*
X8699354Y-27984493D01*
X8693427Y-28035592D01*
X8685718Y-28053050D01*
X8681446Y-28074529D01*
X8666082Y-28097522D01*
X8656772Y-28118608D01*
X8642369Y-28133010D01*
X8628607Y-28153607D01*
X8608010Y-28167369D01*
X8593608Y-28181772D01*
X8572521Y-28191082D01*
X8549529Y-28206446D01*
X8528051Y-28210717D01*
X8510595Y-28218426D01*
X8459504Y-28224352D01*
X8456250Y-28225000D01*
X7543750Y-28225000D01*
X7540508Y-28224355D01*
X7489407Y-28218427D01*
X7471947Y-28210717D01*
X7450471Y-28206446D01*
X7427479Y-28191083D01*
X7406391Y-28181772D01*
X7391986Y-28167367D01*
X7371393Y-28153607D01*
X7357632Y-28133013D01*
X7343227Y-28118608D01*
X7333914Y-28097517D01*
X7318554Y-28074529D01*
X7314282Y-28053056D01*
X7306573Y-28035595D01*
X7300644Y-27984492D01*
X7300000Y-27981250D01*
X7300000Y-27493750D01*
X7300642Y-27490520D01*
X7306572Y-27439407D01*
X7314282Y-27421943D01*
X7318554Y-27400471D01*
X7333913Y-27377484D01*
X7343227Y-27356391D01*
X7357635Y-27341982D01*
X7371393Y-27321393D01*
X7391982Y-27307635D01*
X7406391Y-27293227D01*
X7427484Y-27283913D01*
X7450471Y-27268554D01*
X7471942Y-27264283D01*
X7489404Y-27256573D01*
X7540509Y-27250644D01*
X7543750Y-27250000D01*
X8456250Y-27250000D01*
X8459481Y-27250642D01*
G37*
G36*
X13259481Y-27250642D02*
G01*
X13310592Y-27256572D01*
X13328054Y-27264282D01*
X13349529Y-27268554D01*
X13372517Y-27283914D01*
X13393608Y-27293227D01*
X13408013Y-27307632D01*
X13428607Y-27321393D01*
X13442367Y-27341986D01*
X13456772Y-27356391D01*
X13466083Y-27377480D01*
X13481446Y-27400471D01*
X13485717Y-27421946D01*
X13493426Y-27439404D01*
X13499353Y-27490497D01*
X13500000Y-27493750D01*
X13500000Y-27981250D01*
X13499354Y-27984493D01*
X13493427Y-28035592D01*
X13485718Y-28053050D01*
X13481446Y-28074529D01*
X13466082Y-28097522D01*
X13456772Y-28118608D01*
X13442369Y-28133010D01*
X13428607Y-28153607D01*
X13408010Y-28167369D01*
X13393608Y-28181772D01*
X13372521Y-28191082D01*
X13349529Y-28206446D01*
X13328051Y-28210717D01*
X13310595Y-28218426D01*
X13259504Y-28224352D01*
X13256250Y-28225000D01*
X12343750Y-28225000D01*
X12340508Y-28224355D01*
X12289407Y-28218427D01*
X12271947Y-28210717D01*
X12250471Y-28206446D01*
X12227479Y-28191083D01*
X12206391Y-28181772D01*
X12191986Y-28167367D01*
X12171393Y-28153607D01*
X12157632Y-28133013D01*
X12143227Y-28118608D01*
X12133914Y-28097517D01*
X12118554Y-28074529D01*
X12114282Y-28053056D01*
X12106573Y-28035595D01*
X12100644Y-27984492D01*
X12100000Y-27981250D01*
X12100000Y-27493750D01*
X12100642Y-27490520D01*
X12106572Y-27439407D01*
X12114282Y-27421943D01*
X12118554Y-27400471D01*
X12133913Y-27377484D01*
X12143227Y-27356391D01*
X12157635Y-27341982D01*
X12171393Y-27321393D01*
X12191982Y-27307635D01*
X12206391Y-27293227D01*
X12227484Y-27283913D01*
X12250471Y-27268554D01*
X12271942Y-27264283D01*
X12289404Y-27256573D01*
X12340509Y-27250644D01*
X12343750Y-27250000D01*
X13256250Y-27250000D01*
X13259481Y-27250642D01*
G37*
G36*
X18059481Y-27250642D02*
G01*
X18110592Y-27256572D01*
X18128054Y-27264282D01*
X18149529Y-27268554D01*
X18172517Y-27283914D01*
X18193608Y-27293227D01*
X18208013Y-27307632D01*
X18228607Y-27321393D01*
X18242367Y-27341986D01*
X18256772Y-27356391D01*
X18266083Y-27377480D01*
X18281446Y-27400471D01*
X18285717Y-27421946D01*
X18293426Y-27439404D01*
X18299353Y-27490497D01*
X18300000Y-27493750D01*
X18300000Y-27981250D01*
X18299354Y-27984493D01*
X18293427Y-28035592D01*
X18285718Y-28053050D01*
X18281446Y-28074529D01*
X18266082Y-28097522D01*
X18256772Y-28118608D01*
X18242369Y-28133010D01*
X18228607Y-28153607D01*
X18208010Y-28167369D01*
X18193608Y-28181772D01*
X18172521Y-28191082D01*
X18149529Y-28206446D01*
X18128051Y-28210717D01*
X18110595Y-28218426D01*
X18059504Y-28224352D01*
X18056250Y-28225000D01*
X17143750Y-28225000D01*
X17140508Y-28224355D01*
X17089407Y-28218427D01*
X17071947Y-28210717D01*
X17050471Y-28206446D01*
X17027479Y-28191083D01*
X17006391Y-28181772D01*
X16991986Y-28167367D01*
X16971393Y-28153607D01*
X16957632Y-28133013D01*
X16943227Y-28118608D01*
X16933914Y-28097517D01*
X16918554Y-28074529D01*
X16914282Y-28053056D01*
X16906573Y-28035595D01*
X16900644Y-27984492D01*
X16900000Y-27981250D01*
X16900000Y-27493750D01*
X16900642Y-27490520D01*
X16906572Y-27439407D01*
X16914282Y-27421943D01*
X16918554Y-27400471D01*
X16933913Y-27377484D01*
X16943227Y-27356391D01*
X16957635Y-27341982D01*
X16971393Y-27321393D01*
X16991982Y-27307635D01*
X17006391Y-27293227D01*
X17027484Y-27283913D01*
X17050471Y-27268554D01*
X17071942Y-27264283D01*
X17089404Y-27256573D01*
X17140509Y-27250644D01*
X17143750Y-27250000D01*
X18056250Y-27250000D01*
X18059481Y-27250642D01*
G37*
G36*
X22859481Y-27250642D02*
G01*
X22910592Y-27256572D01*
X22928054Y-27264282D01*
X22949529Y-27268554D01*
X22972517Y-27283914D01*
X22993608Y-27293227D01*
X23008013Y-27307632D01*
X23028607Y-27321393D01*
X23042367Y-27341986D01*
X23056772Y-27356391D01*
X23066083Y-27377480D01*
X23081446Y-27400471D01*
X23085717Y-27421946D01*
X23093426Y-27439404D01*
X23099353Y-27490497D01*
X23100000Y-27493750D01*
X23100000Y-27981250D01*
X23099354Y-27984493D01*
X23093427Y-28035592D01*
X23085718Y-28053050D01*
X23081446Y-28074529D01*
X23066082Y-28097522D01*
X23056772Y-28118608D01*
X23042369Y-28133010D01*
X23028607Y-28153607D01*
X23008010Y-28167369D01*
X22993608Y-28181772D01*
X22972521Y-28191082D01*
X22949529Y-28206446D01*
X22928051Y-28210717D01*
X22910595Y-28218426D01*
X22859504Y-28224352D01*
X22856250Y-28225000D01*
X21943750Y-28225000D01*
X21940508Y-28224355D01*
X21889407Y-28218427D01*
X21871947Y-28210717D01*
X21850471Y-28206446D01*
X21827479Y-28191083D01*
X21806391Y-28181772D01*
X21791986Y-28167367D01*
X21771393Y-28153607D01*
X21757632Y-28133013D01*
X21743227Y-28118608D01*
X21733914Y-28097517D01*
X21718554Y-28074529D01*
X21714282Y-28053056D01*
X21706573Y-28035595D01*
X21700644Y-27984492D01*
X21700000Y-27981250D01*
X21700000Y-27493750D01*
X21700642Y-27490520D01*
X21706572Y-27439407D01*
X21714282Y-27421943D01*
X21718554Y-27400471D01*
X21733913Y-27377484D01*
X21743227Y-27356391D01*
X21757635Y-27341982D01*
X21771393Y-27321393D01*
X21791982Y-27307635D01*
X21806391Y-27293227D01*
X21827484Y-27283913D01*
X21850471Y-27268554D01*
X21871942Y-27264283D01*
X21889404Y-27256573D01*
X21940509Y-27250644D01*
X21943750Y-27250000D01*
X22856250Y-27250000D01*
X22859481Y-27250642D01*
G37*
G36*
X8459481Y-25375642D02*
G01*
X8510592Y-25381572D01*
X8528054Y-25389282D01*
X8549529Y-25393554D01*
X8572517Y-25408914D01*
X8593608Y-25418227D01*
X8608013Y-25432632D01*
X8628607Y-25446393D01*
X8642367Y-25466986D01*
X8656772Y-25481391D01*
X8666083Y-25502480D01*
X8681446Y-25525471D01*
X8685717Y-25546946D01*
X8693426Y-25564404D01*
X8699353Y-25615497D01*
X8700000Y-25618750D01*
X8700000Y-26106250D01*
X8699354Y-26109493D01*
X8693427Y-26160592D01*
X8685718Y-26178050D01*
X8681446Y-26199529D01*
X8666082Y-26222522D01*
X8656772Y-26243608D01*
X8642369Y-26258010D01*
X8628607Y-26278607D01*
X8608010Y-26292369D01*
X8593608Y-26306772D01*
X8572521Y-26316082D01*
X8549529Y-26331446D01*
X8528051Y-26335717D01*
X8510595Y-26343426D01*
X8459504Y-26349352D01*
X8456250Y-26350000D01*
X7543750Y-26350000D01*
X7540508Y-26349355D01*
X7489407Y-26343427D01*
X7471947Y-26335717D01*
X7450471Y-26331446D01*
X7427479Y-26316083D01*
X7406391Y-26306772D01*
X7391986Y-26292367D01*
X7371393Y-26278607D01*
X7357632Y-26258013D01*
X7343227Y-26243608D01*
X7333914Y-26222517D01*
X7318554Y-26199529D01*
X7314282Y-26178056D01*
X7306573Y-26160595D01*
X7300644Y-26109492D01*
X7300000Y-26106250D01*
X7300000Y-25618750D01*
X7300642Y-25615520D01*
X7306572Y-25564407D01*
X7314282Y-25546943D01*
X7318554Y-25525471D01*
X7333913Y-25502484D01*
X7343227Y-25481391D01*
X7357635Y-25466982D01*
X7371393Y-25446393D01*
X7391982Y-25432635D01*
X7406391Y-25418227D01*
X7427484Y-25408913D01*
X7450471Y-25393554D01*
X7471942Y-25389283D01*
X7489404Y-25381573D01*
X7540509Y-25375644D01*
X7543750Y-25375000D01*
X8456250Y-25375000D01*
X8459481Y-25375642D01*
G37*
G36*
X13259481Y-25375642D02*
G01*
X13310592Y-25381572D01*
X13328054Y-25389282D01*
X13349529Y-25393554D01*
X13372517Y-25408914D01*
X13393608Y-25418227D01*
X13408013Y-25432632D01*
X13428607Y-25446393D01*
X13442367Y-25466986D01*
X13456772Y-25481391D01*
X13466083Y-25502480D01*
X13481446Y-25525471D01*
X13485717Y-25546946D01*
X13493426Y-25564404D01*
X13499353Y-25615497D01*
X13500000Y-25618750D01*
X13500000Y-26106250D01*
X13499354Y-26109493D01*
X13493427Y-26160592D01*
X13485718Y-26178050D01*
X13481446Y-26199529D01*
X13466082Y-26222522D01*
X13456772Y-26243608D01*
X13442369Y-26258010D01*
X13428607Y-26278607D01*
X13408010Y-26292369D01*
X13393608Y-26306772D01*
X13372521Y-26316082D01*
X13349529Y-26331446D01*
X13328051Y-26335717D01*
X13310595Y-26343426D01*
X13259504Y-26349352D01*
X13256250Y-26350000D01*
X12343750Y-26350000D01*
X12340508Y-26349355D01*
X12289407Y-26343427D01*
X12271947Y-26335717D01*
X12250471Y-26331446D01*
X12227479Y-26316083D01*
X12206391Y-26306772D01*
X12191986Y-26292367D01*
X12171393Y-26278607D01*
X12157632Y-26258013D01*
X12143227Y-26243608D01*
X12133914Y-26222517D01*
X12118554Y-26199529D01*
X12114282Y-26178056D01*
X12106573Y-26160595D01*
X12100644Y-26109492D01*
X12100000Y-26106250D01*
X12100000Y-25618750D01*
X12100642Y-25615520D01*
X12106572Y-25564407D01*
X12114282Y-25546943D01*
X12118554Y-25525471D01*
X12133913Y-25502484D01*
X12143227Y-25481391D01*
X12157635Y-25466982D01*
X12171393Y-25446393D01*
X12191982Y-25432635D01*
X12206391Y-25418227D01*
X12227484Y-25408913D01*
X12250471Y-25393554D01*
X12271942Y-25389283D01*
X12289404Y-25381573D01*
X12340509Y-25375644D01*
X12343750Y-25375000D01*
X13256250Y-25375000D01*
X13259481Y-25375642D01*
G37*
G36*
X18059481Y-25375642D02*
G01*
X18110592Y-25381572D01*
X18128054Y-25389282D01*
X18149529Y-25393554D01*
X18172517Y-25408914D01*
X18193608Y-25418227D01*
X18208013Y-25432632D01*
X18228607Y-25446393D01*
X18242367Y-25466986D01*
X18256772Y-25481391D01*
X18266083Y-25502480D01*
X18281446Y-25525471D01*
X18285717Y-25546946D01*
X18293426Y-25564404D01*
X18299353Y-25615497D01*
X18300000Y-25618750D01*
X18300000Y-26106250D01*
X18299354Y-26109493D01*
X18293427Y-26160592D01*
X18285718Y-26178050D01*
X18281446Y-26199529D01*
X18266082Y-26222522D01*
X18256772Y-26243608D01*
X18242369Y-26258010D01*
X18228607Y-26278607D01*
X18208010Y-26292369D01*
X18193608Y-26306772D01*
X18172521Y-26316082D01*
X18149529Y-26331446D01*
X18128051Y-26335717D01*
X18110595Y-26343426D01*
X18059504Y-26349352D01*
X18056250Y-26350000D01*
X17143750Y-26350000D01*
X17140508Y-26349355D01*
X17089407Y-26343427D01*
X17071947Y-26335717D01*
X17050471Y-26331446D01*
X17027479Y-26316083D01*
X17006391Y-26306772D01*
X16991986Y-26292367D01*
X16971393Y-26278607D01*
X16957632Y-26258013D01*
X16943227Y-26243608D01*
X16933914Y-26222517D01*
X16918554Y-26199529D01*
X16914282Y-26178056D01*
X16906573Y-26160595D01*
X16900644Y-26109492D01*
X16900000Y-26106250D01*
X16900000Y-25618750D01*
X16900642Y-25615520D01*
X16906572Y-25564407D01*
X16914282Y-25546943D01*
X16918554Y-25525471D01*
X16933913Y-25502484D01*
X16943227Y-25481391D01*
X16957635Y-25466982D01*
X16971393Y-25446393D01*
X16991982Y-25432635D01*
X17006391Y-25418227D01*
X17027484Y-25408913D01*
X17050471Y-25393554D01*
X17071942Y-25389283D01*
X17089404Y-25381573D01*
X17140509Y-25375644D01*
X17143750Y-25375000D01*
X18056250Y-25375000D01*
X18059481Y-25375642D01*
G37*
G36*
X22859481Y-25375642D02*
G01*
X22910592Y-25381572D01*
X22928054Y-25389282D01*
X22949529Y-25393554D01*
X22972517Y-25408914D01*
X22993608Y-25418227D01*
X23008013Y-25432632D01*
X23028607Y-25446393D01*
X23042367Y-25466986D01*
X23056772Y-25481391D01*
X23066083Y-25502480D01*
X23081446Y-25525471D01*
X23085717Y-25546946D01*
X23093426Y-25564404D01*
X23099353Y-25615497D01*
X23100000Y-25618750D01*
X23100000Y-26106250D01*
X23099354Y-26109493D01*
X23093427Y-26160592D01*
X23085718Y-26178050D01*
X23081446Y-26199529D01*
X23066082Y-26222522D01*
X23056772Y-26243608D01*
X23042369Y-26258010D01*
X23028607Y-26278607D01*
X23008010Y-26292369D01*
X22993608Y-26306772D01*
X22972521Y-26316082D01*
X22949529Y-26331446D01*
X22928051Y-26335717D01*
X22910595Y-26343426D01*
X22859504Y-26349352D01*
X22856250Y-26350000D01*
X21943750Y-26350000D01*
X21940508Y-26349355D01*
X21889407Y-26343427D01*
X21871947Y-26335717D01*
X21850471Y-26331446D01*
X21827479Y-26316083D01*
X21806391Y-26306772D01*
X21791986Y-26292367D01*
X21771393Y-26278607D01*
X21757632Y-26258013D01*
X21743227Y-26243608D01*
X21733914Y-26222517D01*
X21718554Y-26199529D01*
X21714282Y-26178056D01*
X21706573Y-26160595D01*
X21700644Y-26109492D01*
X21700000Y-26106250D01*
X21700000Y-25618750D01*
X21700642Y-25615520D01*
X21706572Y-25564407D01*
X21714282Y-25546943D01*
X21718554Y-25525471D01*
X21733913Y-25502484D01*
X21743227Y-25481391D01*
X21757635Y-25466982D01*
X21771393Y-25446393D01*
X21791982Y-25432635D01*
X21806391Y-25418227D01*
X21827484Y-25408913D01*
X21850471Y-25393554D01*
X21871942Y-25389283D01*
X21889404Y-25381573D01*
X21940509Y-25375644D01*
X21943750Y-25375000D01*
X22856250Y-25375000D01*
X22859481Y-25375642D01*
G37*
G36*
X26746742Y-21886601D02*
G01*
X26900687Y-21950367D01*
X27039234Y-22042941D01*
X27157059Y-22160766D01*
X27249633Y-22299313D01*
X27313399Y-22453258D01*
X27345907Y-22616685D01*
X27345907Y-22783315D01*
X27313399Y-22946742D01*
X27249633Y-23100687D01*
X27157059Y-23239234D01*
X27039234Y-23357059D01*
X26900687Y-23449633D01*
X26746742Y-23513399D01*
X26583315Y-23545907D01*
X26416685Y-23545907D01*
X26253258Y-23513399D01*
X26099313Y-23449633D01*
X25960766Y-23357059D01*
X25842941Y-23239234D01*
X25750367Y-23100687D01*
X25686601Y-22946742D01*
X25654093Y-22783315D01*
X25654093Y-22616685D01*
X25686601Y-22453258D01*
X25750367Y-22299313D01*
X25842941Y-22160766D01*
X25960766Y-22042941D01*
X26099313Y-21950367D01*
X26253258Y-21886601D01*
X26416685Y-21854093D01*
X26583315Y-21854093D01*
X26746742Y-21886601D01*
G37*
G36*
X8453231Y-22400642D02*
G01*
X8505772Y-22406738D01*
X8523723Y-22414664D01*
X8545671Y-22419030D01*
X8569166Y-22434729D01*
X8590890Y-22444321D01*
X8605726Y-22459157D01*
X8626777Y-22473223D01*
X8640842Y-22494273D01*
X8655678Y-22509109D01*
X8665269Y-22530830D01*
X8680970Y-22554329D01*
X8685335Y-22576277D01*
X8693260Y-22594224D01*
X8699352Y-22646747D01*
X8700000Y-22650000D01*
X8700000Y-23175000D01*
X8699354Y-23178243D01*
X8693261Y-23230772D01*
X8685336Y-23248719D01*
X8680970Y-23270671D01*
X8665267Y-23294171D01*
X8655678Y-23315890D01*
X8640844Y-23330723D01*
X8626777Y-23351777D01*
X8605723Y-23365844D01*
X8590890Y-23380678D01*
X8569170Y-23390267D01*
X8545671Y-23405970D01*
X8523720Y-23410336D01*
X8505775Y-23418260D01*
X8453254Y-23424352D01*
X8450000Y-23425000D01*
X7550000Y-23425000D01*
X7546758Y-23424355D01*
X7494227Y-23418261D01*
X7476278Y-23410335D01*
X7454329Y-23405970D01*
X7430830Y-23390268D01*
X7409109Y-23380678D01*
X7394273Y-23365842D01*
X7373223Y-23351777D01*
X7359157Y-23330726D01*
X7344321Y-23315890D01*
X7334729Y-23294166D01*
X7319030Y-23270671D01*
X7314664Y-23248724D01*
X7306739Y-23230775D01*
X7300644Y-23178242D01*
X7300000Y-23175000D01*
X7300000Y-22650000D01*
X7300642Y-22646770D01*
X7306738Y-22594227D01*
X7314664Y-22576274D01*
X7319030Y-22554329D01*
X7334728Y-22530835D01*
X7344321Y-22509109D01*
X7359159Y-22494270D01*
X7373223Y-22473223D01*
X7394270Y-22459159D01*
X7409109Y-22444321D01*
X7430835Y-22434727D01*
X7454329Y-22419030D01*
X7476273Y-22414665D01*
X7494224Y-22406739D01*
X7546759Y-22400644D01*
X7550000Y-22400000D01*
X8450000Y-22400000D01*
X8453231Y-22400642D01*
G37*
G36*
X13253231Y-22400642D02*
G01*
X13305772Y-22406738D01*
X13323723Y-22414664D01*
X13345671Y-22419030D01*
X13369166Y-22434729D01*
X13390890Y-22444321D01*
X13405726Y-22459157D01*
X13426777Y-22473223D01*
X13440842Y-22494273D01*
X13455678Y-22509109D01*
X13465269Y-22530830D01*
X13480970Y-22554329D01*
X13485335Y-22576277D01*
X13493260Y-22594224D01*
X13499352Y-22646747D01*
X13500000Y-22650000D01*
X13500000Y-23175000D01*
X13499354Y-23178243D01*
X13493261Y-23230772D01*
X13485336Y-23248719D01*
X13480970Y-23270671D01*
X13465267Y-23294171D01*
X13455678Y-23315890D01*
X13440844Y-23330723D01*
X13426777Y-23351777D01*
X13405723Y-23365844D01*
X13390890Y-23380678D01*
X13369170Y-23390267D01*
X13345671Y-23405970D01*
X13323720Y-23410336D01*
X13305775Y-23418260D01*
X13253254Y-23424352D01*
X13250000Y-23425000D01*
X12350000Y-23425000D01*
X12346758Y-23424355D01*
X12294227Y-23418261D01*
X12276278Y-23410335D01*
X12254329Y-23405970D01*
X12230830Y-23390268D01*
X12209109Y-23380678D01*
X12194273Y-23365842D01*
X12173223Y-23351777D01*
X12159157Y-23330726D01*
X12144321Y-23315890D01*
X12134729Y-23294166D01*
X12119030Y-23270671D01*
X12114664Y-23248724D01*
X12106739Y-23230775D01*
X12100644Y-23178242D01*
X12100000Y-23175000D01*
X12100000Y-22650000D01*
X12100642Y-22646770D01*
X12106738Y-22594227D01*
X12114664Y-22576274D01*
X12119030Y-22554329D01*
X12134728Y-22530835D01*
X12144321Y-22509109D01*
X12159159Y-22494270D01*
X12173223Y-22473223D01*
X12194270Y-22459159D01*
X12209109Y-22444321D01*
X12230835Y-22434727D01*
X12254329Y-22419030D01*
X12276273Y-22414665D01*
X12294224Y-22406739D01*
X12346759Y-22400644D01*
X12350000Y-22400000D01*
X13250000Y-22400000D01*
X13253231Y-22400642D01*
G37*
G36*
X18053231Y-22400642D02*
G01*
X18105772Y-22406738D01*
X18123723Y-22414664D01*
X18145671Y-22419030D01*
X18169166Y-22434729D01*
X18190890Y-22444321D01*
X18205726Y-22459157D01*
X18226777Y-22473223D01*
X18240842Y-22494273D01*
X18255678Y-22509109D01*
X18265269Y-22530830D01*
X18280970Y-22554329D01*
X18285335Y-22576277D01*
X18293260Y-22594224D01*
X18299352Y-22646747D01*
X18300000Y-22650000D01*
X18300000Y-23175000D01*
X18299354Y-23178243D01*
X18293261Y-23230772D01*
X18285336Y-23248719D01*
X18280970Y-23270671D01*
X18265267Y-23294171D01*
X18255678Y-23315890D01*
X18240844Y-23330723D01*
X18226777Y-23351777D01*
X18205723Y-23365844D01*
X18190890Y-23380678D01*
X18169170Y-23390267D01*
X18145671Y-23405970D01*
X18123720Y-23410336D01*
X18105775Y-23418260D01*
X18053254Y-23424352D01*
X18050000Y-23425000D01*
X17150000Y-23425000D01*
X17146758Y-23424355D01*
X17094227Y-23418261D01*
X17076278Y-23410335D01*
X17054329Y-23405970D01*
X17030830Y-23390268D01*
X17009109Y-23380678D01*
X16994273Y-23365842D01*
X16973223Y-23351777D01*
X16959157Y-23330726D01*
X16944321Y-23315890D01*
X16934729Y-23294166D01*
X16919030Y-23270671D01*
X16914664Y-23248724D01*
X16906739Y-23230775D01*
X16900644Y-23178242D01*
X16900000Y-23175000D01*
X16900000Y-22650000D01*
X16900642Y-22646770D01*
X16906738Y-22594227D01*
X16914664Y-22576274D01*
X16919030Y-22554329D01*
X16934728Y-22530835D01*
X16944321Y-22509109D01*
X16959159Y-22494270D01*
X16973223Y-22473223D01*
X16994270Y-22459159D01*
X17009109Y-22444321D01*
X17030835Y-22434727D01*
X17054329Y-22419030D01*
X17076273Y-22414665D01*
X17094224Y-22406739D01*
X17146759Y-22400644D01*
X17150000Y-22400000D01*
X18050000Y-22400000D01*
X18053231Y-22400642D01*
G37*
G36*
X22853231Y-22400642D02*
G01*
X22905772Y-22406738D01*
X22923723Y-22414664D01*
X22945671Y-22419030D01*
X22969166Y-22434729D01*
X22990890Y-22444321D01*
X23005726Y-22459157D01*
X23026777Y-22473223D01*
X23040842Y-22494273D01*
X23055678Y-22509109D01*
X23065269Y-22530830D01*
X23080970Y-22554329D01*
X23085335Y-22576277D01*
X23093260Y-22594224D01*
X23099352Y-22646747D01*
X23100000Y-22650000D01*
X23100000Y-23175000D01*
X23099354Y-23178243D01*
X23093261Y-23230772D01*
X23085336Y-23248719D01*
X23080970Y-23270671D01*
X23065267Y-23294171D01*
X23055678Y-23315890D01*
X23040844Y-23330723D01*
X23026777Y-23351777D01*
X23005723Y-23365844D01*
X22990890Y-23380678D01*
X22969170Y-23390267D01*
X22945671Y-23405970D01*
X22923720Y-23410336D01*
X22905775Y-23418260D01*
X22853254Y-23424352D01*
X22850000Y-23425000D01*
X21950000Y-23425000D01*
X21946758Y-23424355D01*
X21894227Y-23418261D01*
X21876278Y-23410335D01*
X21854329Y-23405970D01*
X21830830Y-23390268D01*
X21809109Y-23380678D01*
X21794273Y-23365842D01*
X21773223Y-23351777D01*
X21759157Y-23330726D01*
X21744321Y-23315890D01*
X21734729Y-23294166D01*
X21719030Y-23270671D01*
X21714664Y-23248724D01*
X21706739Y-23230775D01*
X21700644Y-23178242D01*
X21700000Y-23175000D01*
X21700000Y-22650000D01*
X21700642Y-22646770D01*
X21706738Y-22594227D01*
X21714664Y-22576274D01*
X21719030Y-22554329D01*
X21734728Y-22530835D01*
X21744321Y-22509109D01*
X21759159Y-22494270D01*
X21773223Y-22473223D01*
X21794270Y-22459159D01*
X21809109Y-22444321D01*
X21830835Y-22434727D01*
X21854329Y-22419030D01*
X21876273Y-22414665D01*
X21894224Y-22406739D01*
X21946759Y-22400644D01*
X21950000Y-22400000D01*
X22850000Y-22400000D01*
X22853231Y-22400642D01*
G37*
G36*
X4046742Y-20726601D02*
G01*
X4200687Y-20790367D01*
X4339234Y-20882941D01*
X4457059Y-21000766D01*
X4549633Y-21139313D01*
X4613399Y-21293258D01*
X4645907Y-21456685D01*
X4645907Y-21623315D01*
X4613399Y-21786742D01*
X4549633Y-21940687D01*
X4457059Y-22079234D01*
X4339234Y-22197059D01*
X4200687Y-22289633D01*
X4046742Y-22353399D01*
X3883315Y-22385907D01*
X3716685Y-22385907D01*
X3553258Y-22353399D01*
X3399313Y-22289633D01*
X3260766Y-22197059D01*
X3142941Y-22079234D01*
X3050367Y-21940687D01*
X2986601Y-21786742D01*
X2954093Y-21623315D01*
X2954093Y-21456685D01*
X2986601Y-21293258D01*
X3050367Y-21139313D01*
X3142941Y-21000766D01*
X3260766Y-20882941D01*
X3399313Y-20790367D01*
X3553258Y-20726601D01*
X3716685Y-20694093D01*
X3883315Y-20694093D01*
X4046742Y-20726601D01*
G37*
G36*
X8453231Y-20575642D02*
G01*
X8505772Y-20581738D01*
X8523723Y-20589664D01*
X8545671Y-20594030D01*
X8569166Y-20609729D01*
X8590890Y-20619321D01*
X8605726Y-20634157D01*
X8626777Y-20648223D01*
X8640842Y-20669273D01*
X8655678Y-20684109D01*
X8665269Y-20705830D01*
X8680970Y-20729329D01*
X8685335Y-20751277D01*
X8693260Y-20769224D01*
X8699352Y-20821747D01*
X8700000Y-20825000D01*
X8700000Y-21350000D01*
X8699354Y-21353243D01*
X8693261Y-21405772D01*
X8685336Y-21423719D01*
X8680970Y-21445671D01*
X8665267Y-21469171D01*
X8655678Y-21490890D01*
X8640844Y-21505723D01*
X8626777Y-21526777D01*
X8605723Y-21540844D01*
X8590890Y-21555678D01*
X8569170Y-21565267D01*
X8545671Y-21580970D01*
X8523720Y-21585336D01*
X8505775Y-21593260D01*
X8453254Y-21599352D01*
X8450000Y-21600000D01*
X7550000Y-21600000D01*
X7546758Y-21599355D01*
X7494227Y-21593261D01*
X7476278Y-21585335D01*
X7454329Y-21580970D01*
X7430830Y-21565268D01*
X7409109Y-21555678D01*
X7394273Y-21540842D01*
X7373223Y-21526777D01*
X7359157Y-21505726D01*
X7344321Y-21490890D01*
X7334729Y-21469166D01*
X7319030Y-21445671D01*
X7314664Y-21423724D01*
X7306739Y-21405775D01*
X7300644Y-21353242D01*
X7300000Y-21350000D01*
X7300000Y-20825000D01*
X7300642Y-20821770D01*
X7306738Y-20769227D01*
X7314664Y-20751274D01*
X7319030Y-20729329D01*
X7334728Y-20705835D01*
X7344321Y-20684109D01*
X7359159Y-20669270D01*
X7373223Y-20648223D01*
X7394270Y-20634159D01*
X7409109Y-20619321D01*
X7430835Y-20609727D01*
X7454329Y-20594030D01*
X7476273Y-20589665D01*
X7494224Y-20581739D01*
X7546759Y-20575644D01*
X7550000Y-20575000D01*
X8450000Y-20575000D01*
X8453231Y-20575642D01*
G37*
G36*
X13253231Y-20575642D02*
G01*
X13305772Y-20581738D01*
X13323723Y-20589664D01*
X13345671Y-20594030D01*
X13369166Y-20609729D01*
X13390890Y-20619321D01*
X13405726Y-20634157D01*
X13426777Y-20648223D01*
X13440842Y-20669273D01*
X13455678Y-20684109D01*
X13465269Y-20705830D01*
X13480970Y-20729329D01*
X13485335Y-20751277D01*
X13493260Y-20769224D01*
X13499352Y-20821747D01*
X13500000Y-20825000D01*
X13500000Y-21350000D01*
X13499354Y-21353243D01*
X13493261Y-21405772D01*
X13485336Y-21423719D01*
X13480970Y-21445671D01*
X13465267Y-21469171D01*
X13455678Y-21490890D01*
X13440844Y-21505723D01*
X13426777Y-21526777D01*
X13405723Y-21540844D01*
X13390890Y-21555678D01*
X13369170Y-21565267D01*
X13345671Y-21580970D01*
X13323720Y-21585336D01*
X13305775Y-21593260D01*
X13253254Y-21599352D01*
X13250000Y-21600000D01*
X12350000Y-21600000D01*
X12346758Y-21599355D01*
X12294227Y-21593261D01*
X12276278Y-21585335D01*
X12254329Y-21580970D01*
X12230830Y-21565268D01*
X12209109Y-21555678D01*
X12194273Y-21540842D01*
X12173223Y-21526777D01*
X12159157Y-21505726D01*
X12144321Y-21490890D01*
X12134729Y-21469166D01*
X12119030Y-21445671D01*
X12114664Y-21423724D01*
X12106739Y-21405775D01*
X12100644Y-21353242D01*
X12100000Y-21350000D01*
X12100000Y-20825000D01*
X12100642Y-20821770D01*
X12106738Y-20769227D01*
X12114664Y-20751274D01*
X12119030Y-20729329D01*
X12134728Y-20705835D01*
X12144321Y-20684109D01*
X12159159Y-20669270D01*
X12173223Y-20648223D01*
X12194270Y-20634159D01*
X12209109Y-20619321D01*
X12230835Y-20609727D01*
X12254329Y-20594030D01*
X12276273Y-20589665D01*
X12294224Y-20581739D01*
X12346759Y-20575644D01*
X12350000Y-20575000D01*
X13250000Y-20575000D01*
X13253231Y-20575642D01*
G37*
G36*
X18053231Y-20575642D02*
G01*
X18105772Y-20581738D01*
X18123723Y-20589664D01*
X18145671Y-20594030D01*
X18169166Y-20609729D01*
X18190890Y-20619321D01*
X18205726Y-20634157D01*
X18226777Y-20648223D01*
X18240842Y-20669273D01*
X18255678Y-20684109D01*
X18265269Y-20705830D01*
X18280970Y-20729329D01*
X18285335Y-20751277D01*
X18293260Y-20769224D01*
X18299352Y-20821747D01*
X18300000Y-20825000D01*
X18300000Y-21350000D01*
X18299354Y-21353243D01*
X18293261Y-21405772D01*
X18285336Y-21423719D01*
X18280970Y-21445671D01*
X18265267Y-21469171D01*
X18255678Y-21490890D01*
X18240844Y-21505723D01*
X18226777Y-21526777D01*
X18205723Y-21540844D01*
X18190890Y-21555678D01*
X18169170Y-21565267D01*
X18145671Y-21580970D01*
X18123720Y-21585336D01*
X18105775Y-21593260D01*
X18053254Y-21599352D01*
X18050000Y-21600000D01*
X17150000Y-21600000D01*
X17146758Y-21599355D01*
X17094227Y-21593261D01*
X17076278Y-21585335D01*
X17054329Y-21580970D01*
X17030830Y-21565268D01*
X17009109Y-21555678D01*
X16994273Y-21540842D01*
X16973223Y-21526777D01*
X16959157Y-21505726D01*
X16944321Y-21490890D01*
X16934729Y-21469166D01*
X16919030Y-21445671D01*
X16914664Y-21423724D01*
X16906739Y-21405775D01*
X16900644Y-21353242D01*
X16900000Y-21350000D01*
X16900000Y-20825000D01*
X16900642Y-20821770D01*
X16906738Y-20769227D01*
X16914664Y-20751274D01*
X16919030Y-20729329D01*
X16934728Y-20705835D01*
X16944321Y-20684109D01*
X16959159Y-20669270D01*
X16973223Y-20648223D01*
X16994270Y-20634159D01*
X17009109Y-20619321D01*
X17030835Y-20609727D01*
X17054329Y-20594030D01*
X17076273Y-20589665D01*
X17094224Y-20581739D01*
X17146759Y-20575644D01*
X17150000Y-20575000D01*
X18050000Y-20575000D01*
X18053231Y-20575642D01*
G37*
G36*
X22853231Y-20575642D02*
G01*
X22905772Y-20581738D01*
X22923723Y-20589664D01*
X22945671Y-20594030D01*
X22969166Y-20609729D01*
X22990890Y-20619321D01*
X23005726Y-20634157D01*
X23026777Y-20648223D01*
X23040842Y-20669273D01*
X23055678Y-20684109D01*
X23065269Y-20705830D01*
X23080970Y-20729329D01*
X23085335Y-20751277D01*
X23093260Y-20769224D01*
X23099352Y-20821747D01*
X23100000Y-20825000D01*
X23100000Y-21350000D01*
X23099354Y-21353243D01*
X23093261Y-21405772D01*
X23085336Y-21423719D01*
X23080970Y-21445671D01*
X23065267Y-21469171D01*
X23055678Y-21490890D01*
X23040844Y-21505723D01*
X23026777Y-21526777D01*
X23005723Y-21540844D01*
X22990890Y-21555678D01*
X22969170Y-21565267D01*
X22945671Y-21580970D01*
X22923720Y-21585336D01*
X22905775Y-21593260D01*
X22853254Y-21599352D01*
X22850000Y-21600000D01*
X21950000Y-21600000D01*
X21946758Y-21599355D01*
X21894227Y-21593261D01*
X21876278Y-21585335D01*
X21854329Y-21580970D01*
X21830830Y-21565268D01*
X21809109Y-21555678D01*
X21794273Y-21540842D01*
X21773223Y-21526777D01*
X21759157Y-21505726D01*
X21744321Y-21490890D01*
X21734729Y-21469166D01*
X21719030Y-21445671D01*
X21714664Y-21423724D01*
X21706739Y-21405775D01*
X21700644Y-21353242D01*
X21700000Y-21350000D01*
X21700000Y-20825000D01*
X21700642Y-20821770D01*
X21706738Y-20769227D01*
X21714664Y-20751274D01*
X21719030Y-20729329D01*
X21734728Y-20705835D01*
X21744321Y-20684109D01*
X21759159Y-20669270D01*
X21773223Y-20648223D01*
X21794270Y-20634159D01*
X21809109Y-20619321D01*
X21830835Y-20609727D01*
X21854329Y-20594030D01*
X21876273Y-20589665D01*
X21894224Y-20581739D01*
X21946759Y-20575644D01*
X21950000Y-20575000D01*
X22850000Y-20575000D01*
X22853231Y-20575642D01*
G37*
G36*
X26746742Y-19346601D02*
G01*
X26900687Y-19410367D01*
X27039234Y-19502941D01*
X27157059Y-19620766D01*
X27249633Y-19759313D01*
X27313399Y-19913258D01*
X27345907Y-20076685D01*
X27345907Y-20243315D01*
X27313399Y-20406742D01*
X27249633Y-20560687D01*
X27157059Y-20699234D01*
X27039234Y-20817059D01*
X26900687Y-20909633D01*
X26746742Y-20973399D01*
X26583315Y-21005907D01*
X26416685Y-21005907D01*
X26253258Y-20973399D01*
X26099313Y-20909633D01*
X25960766Y-20817059D01*
X25842941Y-20699234D01*
X25750367Y-20560687D01*
X25686601Y-20406742D01*
X25654093Y-20243315D01*
X25654093Y-20076685D01*
X25686601Y-19913258D01*
X25750367Y-19759313D01*
X25842941Y-19620766D01*
X25960766Y-19502941D01*
X26099313Y-19410367D01*
X26253258Y-19346601D01*
X26416685Y-19314093D01*
X26583315Y-19314093D01*
X26746742Y-19346601D01*
G37*
G36*
X4650000Y-19850000D02*
G01*
X2950000Y-19850000D01*
X2950000Y-18150000D01*
X4650000Y-18150000D01*
X4650000Y-19850000D01*
G37*
G36*
X26746742Y-16806601D02*
G01*
X26900687Y-16870367D01*
X27039234Y-16962941D01*
X27157059Y-17080766D01*
X27249633Y-17219313D01*
X27313399Y-17373258D01*
X27345907Y-17536685D01*
X27345907Y-17703315D01*
X27313399Y-17866742D01*
X27249633Y-18020687D01*
X27157059Y-18159234D01*
X27039234Y-18277059D01*
X26900687Y-18369633D01*
X26746742Y-18433399D01*
X26583315Y-18465907D01*
X26416685Y-18465907D01*
X26253258Y-18433399D01*
X26099313Y-18369633D01*
X25960766Y-18277059D01*
X25842941Y-18159234D01*
X25750367Y-18020687D01*
X25686601Y-17866742D01*
X25654093Y-17703315D01*
X25654093Y-17536685D01*
X25686601Y-17373258D01*
X25750367Y-17219313D01*
X25842941Y-17080766D01*
X25960766Y-16962941D01*
X26099313Y-16870367D01*
X26253258Y-16806601D01*
X26416685Y-16774093D01*
X26583315Y-16774093D01*
X26746742Y-16806601D01*
G37*
G36*
X12407403Y-17116418D02*
G01*
X12456066Y-17148934D01*
X12488582Y-17197597D01*
X12500000Y-17255000D01*
X12500000Y-17555000D01*
X12488582Y-17612403D01*
X12456066Y-17661066D01*
X12407403Y-17693582D01*
X12350000Y-17705000D01*
X10700000Y-17705000D01*
X10642597Y-17693582D01*
X10593934Y-17661066D01*
X10561418Y-17612403D01*
X10550000Y-17555000D01*
X10550000Y-17255000D01*
X10561418Y-17197597D01*
X10593934Y-17148934D01*
X10642597Y-17116418D01*
X10700000Y-17105000D01*
X12350000Y-17105000D01*
X12407403Y-17116418D01*
G37*
G36*
X17357403Y-17116418D02*
G01*
X17406066Y-17148934D01*
X17438582Y-17197597D01*
X17450000Y-17255000D01*
X17450000Y-17555000D01*
X17438582Y-17612403D01*
X17406066Y-17661066D01*
X17357403Y-17693582D01*
X17300000Y-17705000D01*
X15650000Y-17705000D01*
X15592597Y-17693582D01*
X15543934Y-17661066D01*
X15511418Y-17612403D01*
X15500000Y-17555000D01*
X15500000Y-17255000D01*
X15511418Y-17197597D01*
X15543934Y-17148934D01*
X15592597Y-17116418D01*
X15650000Y-17105000D01*
X17300000Y-17105000D01*
X17357403Y-17116418D01*
G37*
G36*
X6803231Y-15775642D02*
G01*
X6855772Y-15781738D01*
X6873723Y-15789664D01*
X6895671Y-15794030D01*
X6919166Y-15809729D01*
X6940890Y-15819321D01*
X6955726Y-15834157D01*
X6976777Y-15848223D01*
X6990842Y-15869273D01*
X7005678Y-15884109D01*
X7015269Y-15905830D01*
X7030970Y-15929329D01*
X7035335Y-15951277D01*
X7043260Y-15969224D01*
X7049352Y-16021747D01*
X7050000Y-16025000D01*
X7050000Y-16975000D01*
X7049354Y-16978243D01*
X7043261Y-17030772D01*
X7035336Y-17048719D01*
X7030970Y-17070671D01*
X7015267Y-17094171D01*
X7005678Y-17115890D01*
X6990844Y-17130723D01*
X6976777Y-17151777D01*
X6955723Y-17165844D01*
X6940890Y-17180678D01*
X6919170Y-17190267D01*
X6895671Y-17205970D01*
X6873720Y-17210336D01*
X6855775Y-17218260D01*
X6803254Y-17224352D01*
X6800000Y-17225000D01*
X6300000Y-17225000D01*
X6296758Y-17224355D01*
X6244227Y-17218261D01*
X6226278Y-17210335D01*
X6204329Y-17205970D01*
X6180830Y-17190268D01*
X6159109Y-17180678D01*
X6144273Y-17165842D01*
X6123223Y-17151777D01*
X6109157Y-17130726D01*
X6094321Y-17115890D01*
X6084729Y-17094166D01*
X6069030Y-17070671D01*
X6064664Y-17048724D01*
X6056739Y-17030775D01*
X6050644Y-16978242D01*
X6050000Y-16975000D01*
X6050000Y-16025000D01*
X6050642Y-16021770D01*
X6056738Y-15969227D01*
X6064664Y-15951274D01*
X6069030Y-15929329D01*
X6084728Y-15905835D01*
X6094321Y-15884109D01*
X6109159Y-15869270D01*
X6123223Y-15848223D01*
X6144270Y-15834159D01*
X6159109Y-15819321D01*
X6180835Y-15809727D01*
X6204329Y-15794030D01*
X6226273Y-15789665D01*
X6244224Y-15781739D01*
X6296759Y-15775644D01*
X6300000Y-15775000D01*
X6800000Y-15775000D01*
X6803231Y-15775642D01*
G37*
G36*
X8703231Y-15775642D02*
G01*
X8755772Y-15781738D01*
X8773723Y-15789664D01*
X8795671Y-15794030D01*
X8819166Y-15809729D01*
X8840890Y-15819321D01*
X8855726Y-15834157D01*
X8876777Y-15848223D01*
X8890842Y-15869273D01*
X8905678Y-15884109D01*
X8915269Y-15905830D01*
X8930970Y-15929329D01*
X8935335Y-15951277D01*
X8943260Y-15969224D01*
X8949352Y-16021747D01*
X8950000Y-16025000D01*
X8950000Y-16975000D01*
X8949354Y-16978243D01*
X8943261Y-17030772D01*
X8935336Y-17048719D01*
X8930970Y-17070671D01*
X8915267Y-17094171D01*
X8905678Y-17115890D01*
X8890844Y-17130723D01*
X8876777Y-17151777D01*
X8855723Y-17165844D01*
X8840890Y-17180678D01*
X8819170Y-17190267D01*
X8795671Y-17205970D01*
X8773720Y-17210336D01*
X8755775Y-17218260D01*
X8703254Y-17224352D01*
X8700000Y-17225000D01*
X8200000Y-17225000D01*
X8196758Y-17224355D01*
X8144227Y-17218261D01*
X8126278Y-17210335D01*
X8104329Y-17205970D01*
X8080830Y-17190268D01*
X8059109Y-17180678D01*
X8044273Y-17165842D01*
X8023223Y-17151777D01*
X8009157Y-17130726D01*
X7994321Y-17115890D01*
X7984729Y-17094166D01*
X7969030Y-17070671D01*
X7964664Y-17048724D01*
X7956739Y-17030775D01*
X7950644Y-16978242D01*
X7950000Y-16975000D01*
X7950000Y-16025000D01*
X7950642Y-16021770D01*
X7956738Y-15969227D01*
X7964664Y-15951274D01*
X7969030Y-15929329D01*
X7984728Y-15905835D01*
X7994321Y-15884109D01*
X8009159Y-15869270D01*
X8023223Y-15848223D01*
X8044270Y-15834159D01*
X8059109Y-15819321D01*
X8080835Y-15809727D01*
X8104329Y-15794030D01*
X8126273Y-15789665D01*
X8144224Y-15781739D01*
X8196759Y-15775644D01*
X8200000Y-15775000D01*
X8700000Y-15775000D01*
X8703231Y-15775642D01*
G37*
G36*
X12407403Y-15846418D02*
G01*
X12456066Y-15878934D01*
X12488582Y-15927597D01*
X12500000Y-15985000D01*
X12500000Y-16285000D01*
X12488582Y-16342403D01*
X12456066Y-16391066D01*
X12407403Y-16423582D01*
X12350000Y-16435000D01*
X10700000Y-16435000D01*
X10642597Y-16423582D01*
X10593934Y-16391066D01*
X10561418Y-16342403D01*
X10550000Y-16285000D01*
X10550000Y-15985000D01*
X10561418Y-15927597D01*
X10593934Y-15878934D01*
X10642597Y-15846418D01*
X10700000Y-15835000D01*
X12350000Y-15835000D01*
X12407403Y-15846418D01*
G37*
G36*
X17357403Y-15846418D02*
G01*
X17406066Y-15878934D01*
X17438582Y-15927597D01*
X17450000Y-15985000D01*
X17450000Y-16285000D01*
X17438582Y-16342403D01*
X17406066Y-16391066D01*
X17357403Y-16423582D01*
X17300000Y-16435000D01*
X15650000Y-16435000D01*
X15592597Y-16423582D01*
X15543934Y-16391066D01*
X15511418Y-16342403D01*
X15500000Y-16285000D01*
X15500000Y-15985000D01*
X15511418Y-15927597D01*
X15543934Y-15878934D01*
X15592597Y-15846418D01*
X15650000Y-15835000D01*
X17300000Y-15835000D01*
X17357403Y-15846418D01*
G37*
G36*
X26746742Y-14266601D02*
G01*
X26900687Y-14330367D01*
X27039234Y-14422941D01*
X27157059Y-14540766D01*
X27249633Y-14679313D01*
X27313399Y-14833258D01*
X27345907Y-14996685D01*
X27345907Y-15163315D01*
X27313399Y-15326742D01*
X27249633Y-15480687D01*
X27157059Y-15619234D01*
X27039234Y-15737059D01*
X26900687Y-15829633D01*
X26746742Y-15893399D01*
X26583315Y-15925907D01*
X26416685Y-15925907D01*
X26253258Y-15893399D01*
X26099313Y-15829633D01*
X25960766Y-15737059D01*
X25842941Y-15619234D01*
X25750367Y-15480687D01*
X25686601Y-15326742D01*
X25654093Y-15163315D01*
X25654093Y-14996685D01*
X25686601Y-14833258D01*
X25750367Y-14679313D01*
X25842941Y-14540766D01*
X25960766Y-14422941D01*
X26099313Y-14330367D01*
X26253258Y-14266601D01*
X26416685Y-14234093D01*
X26583315Y-14234093D01*
X26746742Y-14266601D01*
G37*
G36*
X12407403Y-14576418D02*
G01*
X12456066Y-14608934D01*
X12488582Y-14657597D01*
X12500000Y-14715000D01*
X12500000Y-15015000D01*
X12488582Y-15072403D01*
X12456066Y-15121066D01*
X12407403Y-15153582D01*
X12350000Y-15165000D01*
X10700000Y-15165000D01*
X10642597Y-15153582D01*
X10593934Y-15121066D01*
X10561418Y-15072403D01*
X10550000Y-15015000D01*
X10550000Y-14715000D01*
X10561418Y-14657597D01*
X10593934Y-14608934D01*
X10642597Y-14576418D01*
X10700000Y-14565000D01*
X12350000Y-14565000D01*
X12407403Y-14576418D01*
G37*
G36*
X17357403Y-14576418D02*
G01*
X17406066Y-14608934D01*
X17438582Y-14657597D01*
X17450000Y-14715000D01*
X17450000Y-15015000D01*
X17438582Y-15072403D01*
X17406066Y-15121066D01*
X17357403Y-15153582D01*
X17300000Y-15165000D01*
X15650000Y-15165000D01*
X15592597Y-15153582D01*
X15543934Y-15121066D01*
X15511418Y-15072403D01*
X15500000Y-15015000D01*
X15500000Y-14715000D01*
X15511418Y-14657597D01*
X15543934Y-14608934D01*
X15592597Y-14576418D01*
X15650000Y-14565000D01*
X17300000Y-14565000D01*
X17357403Y-14576418D01*
G37*
G36*
X19803231Y-12775642D02*
G01*
X19855772Y-12781738D01*
X19873723Y-12789664D01*
X19895671Y-12794030D01*
X19919166Y-12809729D01*
X19940890Y-12819321D01*
X19955726Y-12834157D01*
X19976777Y-12848223D01*
X19990842Y-12869273D01*
X20005678Y-12884109D01*
X20015269Y-12905830D01*
X20030970Y-12929329D01*
X20035335Y-12951277D01*
X20043260Y-12969224D01*
X20049352Y-13021747D01*
X20050000Y-13025000D01*
X20050000Y-13975000D01*
X20049354Y-13978243D01*
X20043261Y-14030772D01*
X20035336Y-14048719D01*
X20030970Y-14070671D01*
X20015267Y-14094171D01*
X20005678Y-14115890D01*
X19990844Y-14130723D01*
X19976777Y-14151777D01*
X19955723Y-14165844D01*
X19940890Y-14180678D01*
X19919170Y-14190267D01*
X19895671Y-14205970D01*
X19873720Y-14210336D01*
X19855775Y-14218260D01*
X19803254Y-14224352D01*
X19800000Y-14225000D01*
X19300000Y-14225000D01*
X19296758Y-14224355D01*
X19244227Y-14218261D01*
X19226278Y-14210335D01*
X19204329Y-14205970D01*
X19180830Y-14190268D01*
X19159109Y-14180678D01*
X19144273Y-14165842D01*
X19123223Y-14151777D01*
X19109157Y-14130726D01*
X19094321Y-14115890D01*
X19084729Y-14094166D01*
X19069030Y-14070671D01*
X19064664Y-14048724D01*
X19056739Y-14030775D01*
X19050644Y-13978242D01*
X19050000Y-13975000D01*
X19050000Y-13025000D01*
X19050642Y-13021770D01*
X19056738Y-12969227D01*
X19064664Y-12951274D01*
X19069030Y-12929329D01*
X19084728Y-12905835D01*
X19094321Y-12884109D01*
X19109159Y-12869270D01*
X19123223Y-12848223D01*
X19144270Y-12834159D01*
X19159109Y-12819321D01*
X19180835Y-12809727D01*
X19204329Y-12794030D01*
X19226273Y-12789665D01*
X19244224Y-12781739D01*
X19296759Y-12775644D01*
X19300000Y-12775000D01*
X19800000Y-12775000D01*
X19803231Y-12775642D01*
G37*
G36*
X21703231Y-12775642D02*
G01*
X21755772Y-12781738D01*
X21773723Y-12789664D01*
X21795671Y-12794030D01*
X21819166Y-12809729D01*
X21840890Y-12819321D01*
X21855726Y-12834157D01*
X21876777Y-12848223D01*
X21890842Y-12869273D01*
X21905678Y-12884109D01*
X21915269Y-12905830D01*
X21930970Y-12929329D01*
X21935335Y-12951277D01*
X21943260Y-12969224D01*
X21949352Y-13021747D01*
X21950000Y-13025000D01*
X21950000Y-13975000D01*
X21949354Y-13978243D01*
X21943261Y-14030772D01*
X21935336Y-14048719D01*
X21930970Y-14070671D01*
X21915267Y-14094171D01*
X21905678Y-14115890D01*
X21890844Y-14130723D01*
X21876777Y-14151777D01*
X21855723Y-14165844D01*
X21840890Y-14180678D01*
X21819170Y-14190267D01*
X21795671Y-14205970D01*
X21773720Y-14210336D01*
X21755775Y-14218260D01*
X21703254Y-14224352D01*
X21700000Y-14225000D01*
X21200000Y-14225000D01*
X21196758Y-14224355D01*
X21144227Y-14218261D01*
X21126278Y-14210335D01*
X21104329Y-14205970D01*
X21080830Y-14190268D01*
X21059109Y-14180678D01*
X21044273Y-14165842D01*
X21023223Y-14151777D01*
X21009157Y-14130726D01*
X20994321Y-14115890D01*
X20984729Y-14094166D01*
X20969030Y-14070671D01*
X20964664Y-14048724D01*
X20956739Y-14030775D01*
X20950644Y-13978242D01*
X20950000Y-13975000D01*
X20950000Y-13025000D01*
X20950642Y-13021770D01*
X20956738Y-12969227D01*
X20964664Y-12951274D01*
X20969030Y-12929329D01*
X20984728Y-12905835D01*
X20994321Y-12884109D01*
X21009159Y-12869270D01*
X21023223Y-12848223D01*
X21044270Y-12834159D01*
X21059109Y-12819321D01*
X21080835Y-12809727D01*
X21104329Y-12794030D01*
X21126273Y-12789665D01*
X21144224Y-12781739D01*
X21196759Y-12775644D01*
X21200000Y-12775000D01*
X21700000Y-12775000D01*
X21703231Y-12775642D01*
G37*
G36*
X6853231Y-12800642D02*
G01*
X6905772Y-12806738D01*
X6923723Y-12814664D01*
X6945671Y-12819030D01*
X6969166Y-12834729D01*
X6990890Y-12844321D01*
X7005726Y-12859157D01*
X7026777Y-12873223D01*
X7040842Y-12894273D01*
X7055678Y-12909109D01*
X7065269Y-12930830D01*
X7080970Y-12954329D01*
X7085335Y-12976277D01*
X7093260Y-12994224D01*
X7099352Y-13046747D01*
X7100000Y-13050000D01*
X7100000Y-13950000D01*
X7099354Y-13953243D01*
X7093261Y-14005772D01*
X7085336Y-14023719D01*
X7080970Y-14045671D01*
X7065267Y-14069171D01*
X7055678Y-14090890D01*
X7040844Y-14105723D01*
X7026777Y-14126777D01*
X7005723Y-14140844D01*
X6990890Y-14155678D01*
X6969170Y-14165267D01*
X6945671Y-14180970D01*
X6923720Y-14185336D01*
X6905775Y-14193260D01*
X6853254Y-14199352D01*
X6850000Y-14200000D01*
X6325000Y-14200000D01*
X6321758Y-14199355D01*
X6269227Y-14193261D01*
X6251278Y-14185335D01*
X6229329Y-14180970D01*
X6205830Y-14165268D01*
X6184109Y-14155678D01*
X6169273Y-14140842D01*
X6148223Y-14126777D01*
X6134157Y-14105726D01*
X6119321Y-14090890D01*
X6109729Y-14069166D01*
X6094030Y-14045671D01*
X6089664Y-14023724D01*
X6081739Y-14005775D01*
X6075644Y-13953242D01*
X6075000Y-13950000D01*
X6075000Y-13050000D01*
X6075642Y-13046770D01*
X6081738Y-12994227D01*
X6089664Y-12976274D01*
X6094030Y-12954329D01*
X6109728Y-12930835D01*
X6119321Y-12909109D01*
X6134159Y-12894270D01*
X6148223Y-12873223D01*
X6169270Y-12859159D01*
X6184109Y-12844321D01*
X6205835Y-12834727D01*
X6229329Y-12819030D01*
X6251273Y-12814665D01*
X6269224Y-12806739D01*
X6321759Y-12800644D01*
X6325000Y-12800000D01*
X6850000Y-12800000D01*
X6853231Y-12800642D01*
G37*
G36*
X8678231Y-12800642D02*
G01*
X8730772Y-12806738D01*
X8748723Y-12814664D01*
X8770671Y-12819030D01*
X8794166Y-12834729D01*
X8815890Y-12844321D01*
X8830726Y-12859157D01*
X8851777Y-12873223D01*
X8865842Y-12894273D01*
X8880678Y-12909109D01*
X8890269Y-12930830D01*
X8905970Y-12954329D01*
X8910335Y-12976277D01*
X8918260Y-12994224D01*
X8924352Y-13046747D01*
X8925000Y-13050000D01*
X8925000Y-13950000D01*
X8924354Y-13953243D01*
X8918261Y-14005772D01*
X8910336Y-14023719D01*
X8905970Y-14045671D01*
X8890267Y-14069171D01*
X8880678Y-14090890D01*
X8865844Y-14105723D01*
X8851777Y-14126777D01*
X8830723Y-14140844D01*
X8815890Y-14155678D01*
X8794170Y-14165267D01*
X8770671Y-14180970D01*
X8748720Y-14185336D01*
X8730775Y-14193260D01*
X8678254Y-14199352D01*
X8675000Y-14200000D01*
X8150000Y-14200000D01*
X8146758Y-14199355D01*
X8094227Y-14193261D01*
X8076278Y-14185335D01*
X8054329Y-14180970D01*
X8030830Y-14165268D01*
X8009109Y-14155678D01*
X7994273Y-14140842D01*
X7973223Y-14126777D01*
X7959157Y-14105726D01*
X7944321Y-14090890D01*
X7934729Y-14069166D01*
X7919030Y-14045671D01*
X7914664Y-14023724D01*
X7906739Y-14005775D01*
X7900644Y-13953242D01*
X7900000Y-13950000D01*
X7900000Y-13050000D01*
X7900642Y-13046770D01*
X7906738Y-12994227D01*
X7914664Y-12976274D01*
X7919030Y-12954329D01*
X7934728Y-12930835D01*
X7944321Y-12909109D01*
X7959159Y-12894270D01*
X7973223Y-12873223D01*
X7994270Y-12859159D01*
X8009109Y-12844321D01*
X8030835Y-12834727D01*
X8054329Y-12819030D01*
X8076273Y-12814665D01*
X8094224Y-12806739D01*
X8146759Y-12800644D01*
X8150000Y-12800000D01*
X8675000Y-12800000D01*
X8678231Y-12800642D01*
G37*
G36*
X12407403Y-13306418D02*
G01*
X12456066Y-13338934D01*
X12488582Y-13387597D01*
X12500000Y-13445000D01*
X12500000Y-13745000D01*
X12488582Y-13802403D01*
X12456066Y-13851066D01*
X12407403Y-13883582D01*
X12350000Y-13895000D01*
X10700000Y-13895000D01*
X10642597Y-13883582D01*
X10593934Y-13851066D01*
X10561418Y-13802403D01*
X10550000Y-13745000D01*
X10550000Y-13445000D01*
X10561418Y-13387597D01*
X10593934Y-13338934D01*
X10642597Y-13306418D01*
X10700000Y-13295000D01*
X12350000Y-13295000D01*
X12407403Y-13306418D01*
G37*
G36*
X17357403Y-13306418D02*
G01*
X17406066Y-13338934D01*
X17438582Y-13387597D01*
X17450000Y-13445000D01*
X17450000Y-13745000D01*
X17438582Y-13802403D01*
X17406066Y-13851066D01*
X17357403Y-13883582D01*
X17300000Y-13895000D01*
X15650000Y-13895000D01*
X15592597Y-13883582D01*
X15543934Y-13851066D01*
X15511418Y-13802403D01*
X15500000Y-13745000D01*
X15500000Y-13445000D01*
X15511418Y-13387597D01*
X15543934Y-13338934D01*
X15592597Y-13306418D01*
X15650000Y-13295000D01*
X17300000Y-13295000D01*
X17357403Y-13306418D01*
G37*
G36*
X26746742Y-11726601D02*
G01*
X26900687Y-11790367D01*
X27039234Y-11882941D01*
X27157059Y-12000766D01*
X27249633Y-12139313D01*
X27313399Y-12293258D01*
X27345907Y-12456685D01*
X27345907Y-12623315D01*
X27313399Y-12786742D01*
X27249633Y-12940687D01*
X27157059Y-13079234D01*
X27039234Y-13197059D01*
X26900687Y-13289633D01*
X26746742Y-13353399D01*
X26583315Y-13385907D01*
X26416685Y-13385907D01*
X26253258Y-13353399D01*
X26099313Y-13289633D01*
X25960766Y-13197059D01*
X25842941Y-13079234D01*
X25750367Y-12940687D01*
X25686601Y-12786742D01*
X25654093Y-12623315D01*
X25654093Y-12456685D01*
X25686601Y-12293258D01*
X25750367Y-12139313D01*
X25842941Y-12000766D01*
X25960766Y-11882941D01*
X26099313Y-11790367D01*
X26253258Y-11726601D01*
X26416685Y-11694093D01*
X26583315Y-11694093D01*
X26746742Y-11726601D01*
G37*
G36*
X27350000Y-10850000D02*
G01*
X25650000Y-10850000D01*
X25650000Y-9150000D01*
X27350000Y-9150000D01*
X27350000Y-10850000D01*
G37*
G36*
X15350000Y-9350000D02*
G01*
X13650000Y-9350000D01*
X13650000Y-7650000D01*
X15350000Y-7650000D01*
X15350000Y-9350000D01*
G37*
G36*
X17286742Y-7686601D02*
G01*
X17440687Y-7750367D01*
X17579234Y-7842941D01*
X17697059Y-7960766D01*
X17789633Y-8099313D01*
X17853399Y-8253258D01*
X17885907Y-8416685D01*
X17885907Y-8583315D01*
X17853399Y-8746742D01*
X17789633Y-8900687D01*
X17697059Y-9039234D01*
X17579234Y-9157059D01*
X17440687Y-9249633D01*
X17286742Y-9313399D01*
X17123315Y-9345907D01*
X16956685Y-9345907D01*
X16793258Y-9313399D01*
X16639313Y-9249633D01*
X16500766Y-9157059D01*
X16382941Y-9039234D01*
X16290367Y-8900687D01*
X16226601Y-8746742D01*
X16194093Y-8583315D01*
X16194093Y-8416685D01*
X16226601Y-8253258D01*
X16290367Y-8099313D01*
X16382941Y-7960766D01*
X16500766Y-7842941D01*
X16639313Y-7750367D01*
X16793258Y-7686601D01*
X16956685Y-7654093D01*
X17123315Y-7654093D01*
X17286742Y-7686601D01*
G37*
G36*
X19826742Y-7686601D02*
G01*
X19980687Y-7750367D01*
X20119234Y-7842941D01*
X20237059Y-7960766D01*
X20329633Y-8099313D01*
X20393399Y-8253258D01*
X20425907Y-8416685D01*
X20425907Y-8583315D01*
X20393399Y-8746742D01*
X20329633Y-8900687D01*
X20237059Y-9039234D01*
X20119234Y-9157059D01*
X19980687Y-9249633D01*
X19826742Y-9313399D01*
X19663315Y-9345907D01*
X19496685Y-9345907D01*
X19333258Y-9313399D01*
X19179313Y-9249633D01*
X19040766Y-9157059D01*
X18922941Y-9039234D01*
X18830367Y-8900687D01*
X18766601Y-8746742D01*
X18734093Y-8583315D01*
X18734093Y-8416685D01*
X18766601Y-8253258D01*
X18830367Y-8099313D01*
X18922941Y-7960766D01*
X19040766Y-7842941D01*
X19179313Y-7750367D01*
X19333258Y-7686601D01*
X19496685Y-7654093D01*
X19663315Y-7654093D01*
X19826742Y-7686601D01*
G37*
G36*
X3329005Y-5811003D02*
G01*
X3459406Y-5865017D01*
X3576763Y-5943432D01*
X3676568Y-6043237D01*
X3754983Y-6160594D01*
X3808997Y-6290995D01*
X3836533Y-6429428D01*
X3836533Y-6570572D01*
X3808997Y-6709005D01*
X3754983Y-6839406D01*
X3676568Y-6956763D01*
X3576763Y-7056568D01*
X3459406Y-7134983D01*
X3329005Y-7188997D01*
X3190572Y-7216533D01*
X3049428Y-7216533D01*
X2910995Y-7188997D01*
X2780594Y-7134983D01*
X2663237Y-7056568D01*
X2563432Y-6956763D01*
X2485017Y-6839406D01*
X2431003Y-6709005D01*
X2403467Y-6570572D01*
X2403467Y-6429428D01*
X2431003Y-6290995D01*
X2485017Y-6160594D01*
X2563432Y-6043237D01*
X2663237Y-5943432D01*
X2780594Y-5865017D01*
X2910995Y-5811003D01*
X3049428Y-5783467D01*
X3190572Y-5783467D01*
X3329005Y-5811003D01*
G37*
G36*
X5869005Y-5811003D02*
G01*
X5999406Y-5865017D01*
X6116763Y-5943432D01*
X6216568Y-6043237D01*
X6294983Y-6160594D01*
X6348997Y-6290995D01*
X6376533Y-6429428D01*
X6376533Y-6570572D01*
X6348997Y-6709005D01*
X6294983Y-6839406D01*
X6216568Y-6956763D01*
X6116763Y-7056568D01*
X5999406Y-7134983D01*
X5869005Y-7188997D01*
X5730572Y-7216533D01*
X5589428Y-7216533D01*
X5450995Y-7188997D01*
X5320594Y-7134983D01*
X5203237Y-7056568D01*
X5103432Y-6956763D01*
X5025017Y-6839406D01*
X4971003Y-6709005D01*
X4943467Y-6570572D01*
X4943467Y-6429428D01*
X4971003Y-6290995D01*
X5025017Y-6160594D01*
X5103432Y-6043237D01*
X5203237Y-5943432D01*
X5320594Y-5865017D01*
X5450995Y-5811003D01*
X5589428Y-5783467D01*
X5730572Y-5783467D01*
X5869005Y-5811003D01*
G37*
G36*
X8409005Y-5811003D02*
G01*
X8539406Y-5865017D01*
X8656763Y-5943432D01*
X8756568Y-6043237D01*
X8834983Y-6160594D01*
X8888997Y-6290995D01*
X8916533Y-6429428D01*
X8916533Y-6570572D01*
X8888997Y-6709005D01*
X8834983Y-6839406D01*
X8756568Y-6956763D01*
X8656763Y-7056568D01*
X8539406Y-7134983D01*
X8409005Y-7188997D01*
X8270572Y-7216533D01*
X8129428Y-7216533D01*
X7990995Y-7188997D01*
X7860594Y-7134983D01*
X7743237Y-7056568D01*
X7643432Y-6956763D01*
X7565017Y-6839406D01*
X7511003Y-6709005D01*
X7483467Y-6570572D01*
X7483467Y-6429428D01*
X7511003Y-6290995D01*
X7565017Y-6160594D01*
X7643432Y-6043237D01*
X7743237Y-5943432D01*
X7860594Y-5865017D01*
X7990995Y-5811003D01*
X8129428Y-5783467D01*
X8270572Y-5783467D01*
X8409005Y-5811003D01*
G37*
G36*
X18850000Y-4850000D02*
G01*
X17150000Y-4850000D01*
X17150000Y-3150000D01*
X18850000Y-3150000D01*
X18850000Y-4850000D01*
G37*
G36*
X20786742Y-3186601D02*
G01*
X20940687Y-3250367D01*
X21079234Y-3342941D01*
X21197059Y-3460766D01*
X21289633Y-3599313D01*
X21353399Y-3753258D01*
X21385907Y-3916685D01*
X21385907Y-4083315D01*
X21353399Y-4246742D01*
X21289633Y-4400687D01*
X21197059Y-4539234D01*
X21079234Y-4657059D01*
X20940687Y-4749633D01*
X20786742Y-4813399D01*
X20623315Y-4845907D01*
X20456685Y-4845907D01*
X20293258Y-4813399D01*
X20139313Y-4749633D01*
X20000766Y-4657059D01*
X19882941Y-4539234D01*
X19790367Y-4400687D01*
X19726601Y-4246742D01*
X19694093Y-4083315D01*
X19694093Y-3916685D01*
X19726601Y-3753258D01*
X19790367Y-3599313D01*
X19882941Y-3460766D01*
X20000766Y-3342941D01*
X20139313Y-3250367D01*
X20293258Y-3186601D01*
X20456685Y-3154093D01*
X20623315Y-3154093D01*
X20786742Y-3186601D01*
G37*
G36*
X23326742Y-3186601D02*
G01*
X23480687Y-3250367D01*
X23619234Y-3342941D01*
X23737059Y-3460766D01*
X23829633Y-3599313D01*
X23893399Y-3753258D01*
X23925907Y-3916685D01*
X23925907Y-4083315D01*
X23893399Y-4246742D01*
X23829633Y-4400687D01*
X23737059Y-4539234D01*
X23619234Y-4657059D01*
X23480687Y-4749633D01*
X23326742Y-4813399D01*
X23163315Y-4845907D01*
X22996685Y-4845907D01*
X22833258Y-4813399D01*
X22679313Y-4749633D01*
X22540766Y-4657059D01*
X22422941Y-4539234D01*
X22330367Y-4400687D01*
X22266601Y-4246742D01*
X22234093Y-4083315D01*
X22234093Y-3916685D01*
X22266601Y-3753258D01*
X22330367Y-3599313D01*
X22422941Y-3460766D01*
X22540766Y-3342941D01*
X22679313Y-3250367D01*
X22833258Y-3186601D01*
X22996685Y-3154093D01*
X23163315Y-3154093D01*
X23326742Y-3186601D01*
G37*
M02*
