G04 #@! TF.GenerationSoftware,KiCad,Pcbnew,9.0.2+dfsg-1*
G04 #@! TF.CreationDate,2026-09-20T02:23:28+07:00*
G04 #@! TF.ProjectId,quad-tic-timer,71756164-2d74-4696-932d-74696d65722e,rev?*
G04 #@! TF.SameCoordinates,Original*
G04 #@! TF.FileFunction,Soldermask,Bot*
G04 #@! TF.FilePolarity,Negative*
%FSLAX46Y46*%
G04 Gerber Fmt 4.6, Leading zero omitted, Abs format (unit mm)*
G04 Created by KiCad (PCBNEW 9.0.2+dfsg-1) date 2026-09-20 02:23:28*
%MOMM*%
%LPD*%
G01*
G04 APERTURE LIST*
G04 APERTURE END LIST*
G36*
X26746742Y-21886601D02*
G01*
X26900687Y-21950367D01*
X27039234Y-22042941D01*
X27157059Y-22160766D01*
X27249633Y-22299313D01*
X27313399Y-22453258D01*
X27345907Y-22616685D01*
X27345907Y-22783315D01*
X27313399Y-22946742D01*
X27249633Y-23100687D01*
X27157059Y-23239234D01*
X27039234Y-23357059D01*
X26900687Y-23449633D01*
X26746742Y-23513399D01*
X26583315Y-23545907D01*
X26416685Y-23545907D01*
X26253258Y-23513399D01*
X26099313Y-23449633D01*
X25960766Y-23357059D01*
X25842941Y-23239234D01*
X25750367Y-23100687D01*
X25686601Y-22946742D01*
X25654093Y-22783315D01*
X25654093Y-22616685D01*
X25686601Y-22453258D01*
X25750367Y-22299313D01*
X25842941Y-22160766D01*
X25960766Y-22042941D01*
X26099313Y-21950367D01*
X26253258Y-21886601D01*
X26416685Y-21854093D01*
X26583315Y-21854093D01*
X26746742Y-21886601D01*
G37*
G36*
X4046742Y-20726601D02*
G01*
X4200687Y-20790367D01*
X4339234Y-20882941D01*
X4457059Y-21000766D01*
X4549633Y-21139313D01*
X4613399Y-21293258D01*
X4645907Y-21456685D01*
X4645907Y-21623315D01*
X4613399Y-21786742D01*
X4549633Y-21940687D01*
X4457059Y-22079234D01*
X4339234Y-22197059D01*
X4200687Y-22289633D01*
X4046742Y-22353399D01*
X3883315Y-22385907D01*
X3716685Y-22385907D01*
X3553258Y-22353399D01*
X3399313Y-22289633D01*
X3260766Y-22197059D01*
X3142941Y-22079234D01*
X3050367Y-21940687D01*
X2986601Y-21786742D01*
X2954093Y-21623315D01*
X2954093Y-21456685D01*
X2986601Y-21293258D01*
X3050367Y-21139313D01*
X3142941Y-21000766D01*
X3260766Y-20882941D01*
X3399313Y-20790367D01*
X3553258Y-20726601D01*
X3716685Y-20694093D01*
X3883315Y-20694093D01*
X4046742Y-20726601D01*
G37*
G36*
X26746742Y-19346601D02*
G01*
X26900687Y-19410367D01*
X27039234Y-19502941D01*
X27157059Y-19620766D01*
X27249633Y-19759313D01*
X27313399Y-19913258D01*
X27345907Y-20076685D01*
X27345907Y-20243315D01*
X27313399Y-20406742D01*
X27249633Y-20560687D01*
X27157059Y-20699234D01*
X27039234Y-20817059D01*
X26900687Y-20909633D01*
X26746742Y-20973399D01*
X26583315Y-21005907D01*
X26416685Y-21005907D01*
X26253258Y-20973399D01*
X26099313Y-20909633D01*
X25960766Y-20817059D01*
X25842941Y-20699234D01*
X25750367Y-20560687D01*
X25686601Y-20406742D01*
X25654093Y-20243315D01*
X25654093Y-20076685D01*
X25686601Y-19913258D01*
X25750367Y-19759313D01*
X25842941Y-19620766D01*
X25960766Y-19502941D01*
X26099313Y-19410367D01*
X26253258Y-19346601D01*
X26416685Y-19314093D01*
X26583315Y-19314093D01*
X26746742Y-19346601D01*
G37*
G36*
X4650000Y-19850000D02*
G01*
X2950000Y-19850000D01*
X2950000Y-18150000D01*
X4650000Y-18150000D01*
X4650000Y-19850000D01*
G37*
G36*
X26746742Y-16806601D02*
G01*
X26900687Y-16870367D01*
X27039234Y-16962941D01*
X27157059Y-17080766D01*
X27249633Y-17219313D01*
X27313399Y-17373258D01*
X27345907Y-17536685D01*
X27345907Y-17703315D01*
X27313399Y-17866742D01*
X27249633Y-18020687D01*
X27157059Y-18159234D01*
X27039234Y-18277059D01*
X26900687Y-18369633D01*
X26746742Y-18433399D01*
X26583315Y-18465907D01*
X26416685Y-18465907D01*
X26253258Y-18433399D01*
X26099313Y-18369633D01*
X25960766Y-18277059D01*
X25842941Y-18159234D01*
X25750367Y-18020687D01*
X25686601Y-17866742D01*
X25654093Y-17703315D01*
X25654093Y-17536685D01*
X25686601Y-17373258D01*
X25750367Y-17219313D01*
X25842941Y-17080766D01*
X25960766Y-16962941D01*
X26099313Y-16870367D01*
X26253258Y-16806601D01*
X26416685Y-16774093D01*
X26583315Y-16774093D01*
X26746742Y-16806601D01*
G37*
G36*
X26746742Y-14266601D02*
G01*
X26900687Y-14330367D01*
X27039234Y-14422941D01*
X27157059Y-14540766D01*
X27249633Y-14679313D01*
X27313399Y-14833258D01*
X27345907Y-14996685D01*
X27345907Y-15163315D01*
X27313399Y-15326742D01*
X27249633Y-15480687D01*
X27157059Y-15619234D01*
X27039234Y-15737059D01*
X26900687Y-15829633D01*
X26746742Y-15893399D01*
X26583315Y-15925907D01*
X26416685Y-15925907D01*
X26253258Y-15893399D01*
X26099313Y-15829633D01*
X25960766Y-15737059D01*
X25842941Y-15619234D01*
X25750367Y-15480687D01*
X25686601Y-15326742D01*
X25654093Y-15163315D01*
X25654093Y-14996685D01*
X25686601Y-14833258D01*
X25750367Y-14679313D01*
X25842941Y-14540766D01*
X25960766Y-14422941D01*
X26099313Y-14330367D01*
X26253258Y-14266601D01*
X26416685Y-14234093D01*
X26583315Y-14234093D01*
X26746742Y-14266601D01*
G37*
G36*
X26746742Y-11726601D02*
G01*
X26900687Y-11790367D01*
X27039234Y-11882941D01*
X27157059Y-12000766D01*
X27249633Y-12139313D01*
X27313399Y-12293258D01*
X27345907Y-12456685D01*
X27345907Y-12623315D01*
X27313399Y-12786742D01*
X27249633Y-12940687D01*
X27157059Y-13079234D01*
X27039234Y-13197059D01*
X26900687Y-13289633D01*
X26746742Y-13353399D01*
X26583315Y-13385907D01*
X26416685Y-13385907D01*
X26253258Y-13353399D01*
X26099313Y-13289633D01*
X25960766Y-13197059D01*
X25842941Y-13079234D01*
X25750367Y-12940687D01*
X25686601Y-12786742D01*
X25654093Y-12623315D01*
X25654093Y-12456685D01*
X25686601Y-12293258D01*
X25750367Y-12139313D01*
X25842941Y-12000766D01*
X25960766Y-11882941D01*
X26099313Y-11790367D01*
X26253258Y-11726601D01*
X26416685Y-11694093D01*
X26583315Y-11694093D01*
X26746742Y-11726601D01*
G37*
G36*
X27350000Y-10850000D02*
G01*
X25650000Y-10850000D01*
X25650000Y-9150000D01*
X27350000Y-9150000D01*
X27350000Y-10850000D01*
G37*
G36*
X15350000Y-9350000D02*
G01*
X13650000Y-9350000D01*
X13650000Y-7650000D01*
X15350000Y-7650000D01*
X15350000Y-9350000D01*
G37*
G36*
X17286742Y-7686601D02*
G01*
X17440687Y-7750367D01*
X17579234Y-7842941D01*
X17697059Y-7960766D01*
X17789633Y-8099313D01*
X17853399Y-8253258D01*
X17885907Y-8416685D01*
X17885907Y-8583315D01*
X17853399Y-8746742D01*
X17789633Y-8900687D01*
X17697059Y-9039234D01*
X17579234Y-9157059D01*
X17440687Y-9249633D01*
X17286742Y-9313399D01*
X17123315Y-9345907D01*
X16956685Y-9345907D01*
X16793258Y-9313399D01*
X16639313Y-9249633D01*
X16500766Y-9157059D01*
X16382941Y-9039234D01*
X16290367Y-8900687D01*
X16226601Y-8746742D01*
X16194093Y-8583315D01*
X16194093Y-8416685D01*
X16226601Y-8253258D01*
X16290367Y-8099313D01*
X16382941Y-7960766D01*
X16500766Y-7842941D01*
X16639313Y-7750367D01*
X16793258Y-7686601D01*
X16956685Y-7654093D01*
X17123315Y-7654093D01*
X17286742Y-7686601D01*
G37*
G36*
X19826742Y-7686601D02*
G01*
X19980687Y-7750367D01*
X20119234Y-7842941D01*
X20237059Y-7960766D01*
X20329633Y-8099313D01*
X20393399Y-8253258D01*
X20425907Y-8416685D01*
X20425907Y-8583315D01*
X20393399Y-8746742D01*
X20329633Y-8900687D01*
X20237059Y-9039234D01*
X20119234Y-9157059D01*
X19980687Y-9249633D01*
X19826742Y-9313399D01*
X19663315Y-9345907D01*
X19496685Y-9345907D01*
X19333258Y-9313399D01*
X19179313Y-9249633D01*
X19040766Y-9157059D01*
X18922941Y-9039234D01*
X18830367Y-8900687D01*
X18766601Y-8746742D01*
X18734093Y-8583315D01*
X18734093Y-8416685D01*
X18766601Y-8253258D01*
X18830367Y-8099313D01*
X18922941Y-7960766D01*
X19040766Y-7842941D01*
X19179313Y-7750367D01*
X19333258Y-7686601D01*
X19496685Y-7654093D01*
X19663315Y-7654093D01*
X19826742Y-7686601D01*
G37*
G36*
X3329005Y-5811003D02*
G01*
X3459406Y-5865017D01*
X3576763Y-5943432D01*
X3676568Y-6043237D01*
X3754983Y-6160594D01*
X3808997Y-6290995D01*
X3836533Y-6429428D01*
X3836533Y-6570572D01*
X3808997Y-6709005D01*
X3754983Y-6839406D01*
X3676568Y-6956763D01*
X3576763Y-7056568D01*
X3459406Y-7134983D01*
X3329005Y-7188997D01*
X3190572Y-7216533D01*
X3049428Y-7216533D01*
X2910995Y-7188997D01*
X2780594Y-7134983D01*
X2663237Y-7056568D01*
X2563432Y-6956763D01*
X2485017Y-6839406D01*
X2431003Y-6709005D01*
X2403467Y-6570572D01*
X2403467Y-6429428D01*
X2431003Y-6290995D01*
X2485017Y-6160594D01*
X2563432Y-6043237D01*
X2663237Y-5943432D01*
X2780594Y-5865017D01*
X2910995Y-5811003D01*
X3049428Y-5783467D01*
X3190572Y-5783467D01*
X3329005Y-5811003D01*
G37*
G36*
X5869005Y-5811003D02*
G01*
X5999406Y-5865017D01*
X6116763Y-5943432D01*
X6216568Y-6043237D01*
X6294983Y-6160594D01*
X6348997Y-6290995D01*
X6376533Y-6429428D01*
X6376533Y-6570572D01*
X6348997Y-6709005D01*
X6294983Y-6839406D01*
X6216568Y-6956763D01*
X6116763Y-7056568D01*
X5999406Y-7134983D01*
X5869005Y-7188997D01*
X5730572Y-7216533D01*
X5589428Y-7216533D01*
X5450995Y-7188997D01*
X5320594Y-7134983D01*
X5203237Y-7056568D01*
X5103432Y-6956763D01*
X5025017Y-6839406D01*
X4971003Y-6709005D01*
X4943467Y-6570572D01*
X4943467Y-6429428D01*
X4971003Y-6290995D01*
X5025017Y-6160594D01*
X5103432Y-6043237D01*
X5203237Y-5943432D01*
X5320594Y-5865017D01*
X5450995Y-5811003D01*
X5589428Y-5783467D01*
X5730572Y-5783467D01*
X5869005Y-5811003D01*
G37*
G36*
X8409005Y-5811003D02*
G01*
X8539406Y-5865017D01*
X8656763Y-5943432D01*
X8756568Y-6043237D01*
X8834983Y-6160594D01*
X8888997Y-6290995D01*
X8916533Y-6429428D01*
X8916533Y-6570572D01*
X8888997Y-6709005D01*
X8834983Y-6839406D01*
X8756568Y-6956763D01*
X8656763Y-7056568D01*
X8539406Y-7134983D01*
X8409005Y-7188997D01*
X8270572Y-7216533D01*
X8129428Y-7216533D01*
X7990995Y-7188997D01*
X7860594Y-7134983D01*
X7743237Y-7056568D01*
X7643432Y-6956763D01*
X7565017Y-6839406D01*
X7511003Y-6709005D01*
X7483467Y-6570572D01*
X7483467Y-6429428D01*
X7511003Y-6290995D01*
X7565017Y-6160594D01*
X7643432Y-6043237D01*
X7743237Y-5943432D01*
X7860594Y-5865017D01*
X7990995Y-5811003D01*
X8129428Y-5783467D01*
X8270572Y-5783467D01*
X8409005Y-5811003D01*
G37*
G36*
X18850000Y-4850000D02*
G01*
X17150000Y-4850000D01*
X17150000Y-3150000D01*
X18850000Y-3150000D01*
X18850000Y-4850000D01*
G37*
G36*
X20786742Y-3186601D02*
G01*
X20940687Y-3250367D01*
X21079234Y-3342941D01*
X21197059Y-3460766D01*
X21289633Y-3599313D01*
X21353399Y-3753258D01*
X21385907Y-3916685D01*
X21385907Y-4083315D01*
X21353399Y-4246742D01*
X21289633Y-4400687D01*
X21197059Y-4539234D01*
X21079234Y-4657059D01*
X20940687Y-4749633D01*
X20786742Y-4813399D01*
X20623315Y-4845907D01*
X20456685Y-4845907D01*
X20293258Y-4813399D01*
X20139313Y-4749633D01*
X20000766Y-4657059D01*
X19882941Y-4539234D01*
X19790367Y-4400687D01*
X19726601Y-4246742D01*
X19694093Y-4083315D01*
X19694093Y-3916685D01*
X19726601Y-3753258D01*
X19790367Y-3599313D01*
X19882941Y-3460766D01*
X20000766Y-3342941D01*
X20139313Y-3250367D01*
X20293258Y-3186601D01*
X20456685Y-3154093D01*
X20623315Y-3154093D01*
X20786742Y-3186601D01*
G37*
G36*
X23326742Y-3186601D02*
G01*
X23480687Y-3250367D01*
X23619234Y-3342941D01*
X23737059Y-3460766D01*
X23829633Y-3599313D01*
X23893399Y-3753258D01*
X23925907Y-3916685D01*
X23925907Y-4083315D01*
X23893399Y-4246742D01*
X23829633Y-4400687D01*
X23737059Y-4539234D01*
X23619234Y-4657059D01*
X23480687Y-4749633D01*
X23326742Y-4813399D01*
X23163315Y-4845907D01*
X22996685Y-4845907D01*
X22833258Y-4813399D01*
X22679313Y-4749633D01*
X22540766Y-4657059D01*
X22422941Y-4539234D01*
X22330367Y-4400687D01*
X22266601Y-4246742D01*
X22234093Y-4083315D01*
X22234093Y-3916685D01*
X22266601Y-3753258D01*
X22330367Y-3599313D01*
X22422941Y-3460766D01*
X22540766Y-3342941D01*
X22679313Y-3250367D01*
X22833258Y-3186601D01*
X22996685Y-3154093D01*
X23163315Y-3154093D01*
X23326742Y-3186601D01*
G37*
M02*
