G04 #@! TF.GenerationSoftware,KiCad,Pcbnew,9.0.2+dfsg-1*
G04 #@! TF.CreationDate,2026-09-20T02:23:28+07:00*
G04 #@! TF.ProjectId,quad-tic-timer,71756164-2d74-4696-932d-74696d65722e,rev?*
G04 #@! TF.SameCoordinates,Original*
G04 #@! TF.FileFunction,Copper,L2,Bot*
G04 #@! TF.FilePolarity,Positive*
%FSLAX46Y46*%
G04 Gerber Fmt 4.6, Leading zero omitted, Abs format (unit mm)*
G04 Created by KiCad (PCBNEW 9.0.2+dfsg-1) date 2026-09-20 02:23:28*
%MOMM*%
%LPD*%
G01*
G04 APERTURE LIST*
G04 #@! TA.AperFunction,ComponentPad*
%ADD10C,1.440000*%
G04 #@! TD*
G04 #@! TA.AperFunction,ComponentPad*
%ADD11R,1.700000X1.700000*%
G04 #@! TD*
G04 #@! TA.AperFunction,ComponentPad*
%ADD12C,1.700000*%
G04 #@! TD*
G04 #@! TA.AperFunction,ViaPad*
%ADD13C,0.600000*%
G04 #@! TD*
G04 #@! TA.AperFunction,Conductor*
%ADD14C,0.200000*%
G04 #@! TD*
G04 APERTURE END LIST*
D10*
G04 #@! TO.P,RV1,1*
G04 #@! TO.N,GND*
X8200000Y-6500000D03*
G04 #@! TO.P,RV1,2*
G04 #@! TO.N,N_RVW*
X5660000Y-6500000D03*
G04 #@! TO.P,RV1,3*
G04 #@! TO.N,VCC*
X3120000Y-6500000D03*
G04 #@! TD*
D11*
G04 #@! TO.P,JPWR,1*
G04 #@! TO.N,VCC*
X3800000Y-19000000D03*
D12*
G04 #@! TO.P,JPWR,2*
G04 #@! TO.N,GND*
X3800000Y-21540000D03*
G04 #@! TD*
D11*
G04 #@! TO.P,JP1,1*
G04 #@! TO.N,N_RVW*
X14500000Y-8500000D03*
D12*
G04 #@! TO.P,JP1,2*
G04 #@! TO.N,N_POT*
X17040000Y-8500000D03*
G04 #@! TO.P,JP1,3*
G04 #@! TO.N,N_EXTW*
X19580000Y-8500000D03*
G04 #@! TD*
D11*
G04 #@! TO.P,JEXT,1*
G04 #@! TO.N,GND*
X18000000Y-4000000D03*
D12*
G04 #@! TO.P,JEXT,2*
G04 #@! TO.N,N_EXTW*
X20540000Y-4000000D03*
G04 #@! TO.P,JEXT,3*
G04 #@! TO.N,VCC*
X23080000Y-4000000D03*
G04 #@! TD*
D11*
G04 #@! TO.P,JOUT,1*
G04 #@! TO.N,O1*
X26500000Y-10000000D03*
D12*
G04 #@! TO.P,JOUT,2*
G04 #@! TO.N,O2*
X26500000Y-12540000D03*
G04 #@! TO.P,JOUT,3*
G04 #@! TO.N,O3*
X26500000Y-15080000D03*
G04 #@! TO.P,JOUT,4*
G04 #@! TO.N,O4*
X26500000Y-17620000D03*
G04 #@! TO.P,JOUT,5*
G04 #@! TO.N,VCC*
X26500000Y-20160000D03*
G04 #@! TO.P,JOUT,6*
G04 #@! TO.N,GND*
X26500000Y-22700000D03*
G04 #@! TD*
D13*
G04 #@! TO.N,GND*
X12254800Y-28739900D03*
X6645000Y-14987500D03*
X11791000Y-19309700D03*
X23236800Y-28668700D03*
X7789400Y-28730200D03*
X21480100Y-11827700D03*
X17745800Y-28740000D03*
G04 #@! TO.N,O1*
X15126500Y-18538000D03*
G04 #@! TO.N,O2*
X17177400Y-18223200D03*
G04 #@! TO.N,O4*
X12555000Y-18648100D03*
G04 #@! TD*
D14*
G04 #@! TO.N,VCC*
X3800000Y-19000000D02*
X4951700Y-19000000D01*
X4951700Y-19000000D02*
X6111700Y-20160000D01*
X6111700Y-20160000D02*
X26500000Y-20160000D01*
G04 #@! TO.N,N_RVW*
X14500000Y-8500000D02*
X7660000Y-8500000D01*
X7660000Y-8500000D02*
X5660000Y-6500000D01*
G04 #@! TO.N,O1*
X26500000Y-10000000D02*
X24551900Y-10000000D01*
X17053600Y-17498300D02*
X16166200Y-17498300D01*
X16166200Y-17498300D02*
X15126500Y-18538000D01*
X24551900Y-10000000D02*
X17053600Y-17498300D01*
G04 #@! TO.N,O2*
X26500000Y-12540000D02*
X22860600Y-12540000D01*
X22860600Y-12540000D02*
X17177400Y-18223200D01*
G04 #@! TO.N,O4*
X24933700Y-19186300D02*
X26500000Y-17620000D01*
X13093200Y-19186300D02*
X24933700Y-19186300D01*
X12555000Y-18648100D02*
X13093200Y-19186300D01*
G04 #@! TD*
G04 #@! TA.AperFunction,Conductor*
G04 #@! TO.N,GND*
G36*
X28307863Y-1019685D02*
G01*
X28328505Y-1036319D01*
X28963681Y-1671495D01*
X28997166Y-1732818D01*
X29000000Y-1759176D01*
X29000000Y-28240824D01*
X28980315Y-28307863D01*
X28963681Y-28328505D01*
X28328505Y-28963681D01*
X28267182Y-28997166D01*
X28240824Y-29000000D01*
X1759176Y-29000000D01*
X1692137Y-28980315D01*
X1671495Y-28963681D01*
X1036319Y-28328505D01*
X1002834Y-28267182D01*
X1000000Y-28240824D01*
X1000000Y-18102135D01*
X2449500Y-18102135D01*
X2449500Y-19897870D01*
X2449501Y-19897876D01*
X2455908Y-19957483D01*
X2506202Y-20092328D01*
X2506206Y-20092335D01*
X2592452Y-20207544D01*
X2592455Y-20207547D01*
X2707664Y-20293793D01*
X2707671Y-20293797D01*
X2842517Y-20344091D01*
X2842516Y-20344091D01*
X2849444Y-20344835D01*
X2902127Y-20350500D01*
X4697872Y-20350499D01*
X4757483Y-20344091D01*
X4892331Y-20293796D01*
X5007546Y-20207546D01*
X5051278Y-20149127D01*
X5107210Y-20107258D01*
X5176901Y-20102274D01*
X5238223Y-20135758D01*
X5742984Y-20640520D01*
X5742986Y-20640521D01*
X5742990Y-20640524D01*
X5879909Y-20719573D01*
X5879916Y-20719577D01*
X6032643Y-20760501D01*
X6032645Y-20760501D01*
X6198354Y-20760501D01*
X6198370Y-20760500D01*
X25214281Y-20760500D01*
X25281320Y-20780185D01*
X25324765Y-20828205D01*
X25344947Y-20867814D01*
X25344948Y-20867815D01*
X25469890Y-21039786D01*
X25620213Y-21190109D01*
X25792179Y-21315048D01*
X25792181Y-21315049D01*
X25792184Y-21315051D01*
X25981588Y-21411557D01*
X26183757Y-21477246D01*
X26393713Y-21510500D01*
X26393714Y-21510500D01*
X26606286Y-21510500D01*
X26606287Y-21510500D01*
X26816243Y-21477246D01*
X27018412Y-21411557D01*
X27207816Y-21315051D01*
X27229789Y-21299086D01*
X27379786Y-21190109D01*
X27379788Y-21190106D01*
X27379792Y-21190104D01*
X27530104Y-21039792D01*
X27530106Y-21039788D01*
X27530109Y-21039786D01*
X27655048Y-20867820D01*
X27655047Y-20867820D01*
X27655051Y-20867816D01*
X27751557Y-20678412D01*
X27817246Y-20476243D01*
X27850500Y-20266287D01*
X27850500Y-20053713D01*
X27817246Y-19843757D01*
X27751557Y-19641588D01*
X27655051Y-19452184D01*
X27655049Y-19452181D01*
X27655048Y-19452179D01*
X27530109Y-19280213D01*
X27379786Y-19129890D01*
X27207820Y-19004951D01*
X27207115Y-19004591D01*
X27199054Y-19000485D01*
X27148259Y-18952512D01*
X27131463Y-18884692D01*
X27153999Y-18818556D01*
X27199054Y-18779515D01*
X27207816Y-18775051D01*
X27229789Y-18759086D01*
X27379786Y-18650109D01*
X27379788Y-18650106D01*
X27379792Y-18650104D01*
X27530104Y-18499792D01*
X27530106Y-18499788D01*
X27530109Y-18499786D01*
X27655048Y-18327820D01*
X27655047Y-18327820D01*
X27655051Y-18327816D01*
X27751557Y-18138412D01*
X27817246Y-17936243D01*
X27850500Y-17726287D01*
X27850500Y-17513713D01*
X27817246Y-17303757D01*
X27751557Y-17101588D01*
X27655051Y-16912184D01*
X27655049Y-16912181D01*
X27655048Y-16912179D01*
X27530109Y-16740213D01*
X27379786Y-16589890D01*
X27207820Y-16464951D01*
X27207115Y-16464591D01*
X27199054Y-16460485D01*
X27148259Y-16412512D01*
X27131463Y-16344692D01*
X27153999Y-16278556D01*
X27199054Y-16239515D01*
X27207816Y-16235051D01*
X27229789Y-16219086D01*
X27379786Y-16110109D01*
X27379788Y-16110106D01*
X27379792Y-16110104D01*
X27530104Y-15959792D01*
X27530106Y-15959788D01*
X27530109Y-15959786D01*
X27655048Y-15787820D01*
X27655047Y-15787820D01*
X27655051Y-15787816D01*
X27751557Y-15598412D01*
X27817246Y-15396243D01*
X27850500Y-15186287D01*
X27850500Y-14973713D01*
X27817246Y-14763757D01*
X27751557Y-14561588D01*
X27655051Y-14372184D01*
X27655049Y-14372181D01*
X27655048Y-14372179D01*
X27530109Y-14200213D01*
X27379786Y-14049890D01*
X27207820Y-13924951D01*
X27207115Y-13924591D01*
X27199054Y-13920485D01*
X27148259Y-13872512D01*
X27131463Y-13804692D01*
X27153999Y-13738556D01*
X27199054Y-13699515D01*
X27207816Y-13695051D01*
X27229789Y-13679086D01*
X27379786Y-13570109D01*
X27379788Y-13570106D01*
X27379792Y-13570104D01*
X27530104Y-13419792D01*
X27530106Y-13419788D01*
X27530109Y-13419786D01*
X27655048Y-13247820D01*
X27655047Y-13247820D01*
X27655051Y-13247816D01*
X27751557Y-13058412D01*
X27817246Y-12856243D01*
X27850500Y-12646287D01*
X27850500Y-12433713D01*
X27817246Y-12223757D01*
X27751557Y-12021588D01*
X27655051Y-11832184D01*
X27655049Y-11832181D01*
X27655048Y-11832179D01*
X27530109Y-11660213D01*
X27416569Y-11546673D01*
X27383084Y-11485350D01*
X27388068Y-11415658D01*
X27429940Y-11359725D01*
X27460915Y-11342810D01*
X27592331Y-11293796D01*
X27707546Y-11207546D01*
X27793796Y-11092331D01*
X27844091Y-10957483D01*
X27850500Y-10897873D01*
X27850499Y-9102128D01*
X27844091Y-9042517D01*
X27835101Y-9018414D01*
X27793797Y-8907671D01*
X27793793Y-8907664D01*
X27707547Y-8792455D01*
X27707544Y-8792452D01*
X27592335Y-8706206D01*
X27592328Y-8706202D01*
X27457482Y-8655908D01*
X27457483Y-8655908D01*
X27397883Y-8649501D01*
X27397881Y-8649500D01*
X27397873Y-8649500D01*
X27397864Y-8649500D01*
X25602129Y-8649500D01*
X25602123Y-8649501D01*
X25542516Y-8655908D01*
X25407671Y-8706202D01*
X25407664Y-8706206D01*
X25292455Y-8792452D01*
X25292452Y-8792455D01*
X25206206Y-8907664D01*
X25206202Y-8907671D01*
X25155908Y-9042517D01*
X25149675Y-9100499D01*
X25149501Y-9102123D01*
X25149500Y-9102135D01*
X25149500Y-9275500D01*
X25129815Y-9342539D01*
X25077011Y-9388294D01*
X25025500Y-9399500D01*
X24638570Y-9399500D01*
X24638554Y-9399499D01*
X24630958Y-9399499D01*
X24472843Y-9399499D01*
X24396479Y-9419961D01*
X24320114Y-9440423D01*
X24320109Y-9440426D01*
X24183190Y-9519475D01*
X24183182Y-9519481D01*
X16841184Y-16861481D01*
X16779861Y-16894966D01*
X16753503Y-16897800D01*
X16252869Y-16897800D01*
X16252853Y-16897799D01*
X16245257Y-16897799D01*
X16087143Y-16897799D01*
X15979787Y-16926565D01*
X15934410Y-16938724D01*
X15934409Y-16938725D01*
X15884296Y-16967659D01*
X15884295Y-16967660D01*
X15840889Y-16992720D01*
X15797485Y-17017779D01*
X15797482Y-17017781D01*
X15111839Y-17703425D01*
X15050516Y-17736910D01*
X15048350Y-17737361D01*
X14893008Y-17768261D01*
X14892998Y-17768264D01*
X14747327Y-17828602D01*
X14747314Y-17828609D01*
X14616211Y-17916210D01*
X14616207Y-17916213D01*
X14504713Y-18027707D01*
X14504710Y-18027711D01*
X14417109Y-18158814D01*
X14417102Y-18158827D01*
X14356764Y-18304498D01*
X14356761Y-18304510D01*
X14326000Y-18459153D01*
X14326000Y-18461800D01*
X14325608Y-18463134D01*
X14325403Y-18465218D01*
X14325007Y-18465179D01*
X14306315Y-18528839D01*
X14253511Y-18574594D01*
X14202000Y-18585800D01*
X13460555Y-18585800D01*
X13393516Y-18566115D01*
X13347761Y-18513311D01*
X13338938Y-18485992D01*
X13324738Y-18414608D01*
X13324737Y-18414607D01*
X13324737Y-18414603D01*
X13288789Y-18327816D01*
X13264397Y-18268927D01*
X13264390Y-18268914D01*
X13176789Y-18137811D01*
X13176786Y-18137807D01*
X13065292Y-18026313D01*
X13065288Y-18026310D01*
X12934185Y-17938709D01*
X12934172Y-17938702D01*
X12788501Y-17878364D01*
X12788489Y-17878361D01*
X12633845Y-17847600D01*
X12633842Y-17847600D01*
X12476158Y-17847600D01*
X12476155Y-17847600D01*
X12321510Y-17878361D01*
X12321498Y-17878364D01*
X12175827Y-17938702D01*
X12175814Y-17938709D01*
X12044711Y-18026310D01*
X12044707Y-18026313D01*
X11933213Y-18137807D01*
X11933210Y-18137811D01*
X11845609Y-18268914D01*
X11845602Y-18268927D01*
X11785264Y-18414598D01*
X11785261Y-18414610D01*
X11754500Y-18569253D01*
X11754500Y-18726946D01*
X11785261Y-18881589D01*
X11785264Y-18881601D01*
X11845602Y-19027272D01*
X11845609Y-19027285D01*
X11933210Y-19158388D01*
X11933213Y-19158392D01*
X12044707Y-19269886D01*
X12044711Y-19269889D01*
X12138261Y-19332398D01*
X12183066Y-19386010D01*
X12191773Y-19455335D01*
X12161618Y-19518363D01*
X12102175Y-19555082D01*
X12069370Y-19559500D01*
X6411798Y-19559500D01*
X6344759Y-19539815D01*
X6324117Y-19523181D01*
X5439290Y-18638355D01*
X5439288Y-18638352D01*
X5320417Y-18519481D01*
X5320416Y-18519480D01*
X5233604Y-18469360D01*
X5233604Y-18469359D01*
X5233599Y-18469357D01*
X5220510Y-18461800D01*
X5212495Y-18457172D01*
X5164281Y-18406602D01*
X5150499Y-18349787D01*
X5150499Y-18102129D01*
X5150498Y-18102123D01*
X5150497Y-18102116D01*
X5144091Y-18042517D01*
X5138567Y-18027707D01*
X5093797Y-17907671D01*
X5093793Y-17907664D01*
X5007547Y-17792455D01*
X5007544Y-17792452D01*
X4892335Y-17706206D01*
X4892328Y-17706202D01*
X4757482Y-17655908D01*
X4757483Y-17655908D01*
X4697883Y-17649501D01*
X4697881Y-17649500D01*
X4697873Y-17649500D01*
X4697864Y-17649500D01*
X2902129Y-17649500D01*
X2902123Y-17649501D01*
X2842516Y-17655908D01*
X2707671Y-17706202D01*
X2707664Y-17706206D01*
X2592455Y-17792452D01*
X2592452Y-17792455D01*
X2506206Y-17907664D01*
X2506202Y-17907671D01*
X2455908Y-18042517D01*
X2455019Y-18050791D01*
X2449501Y-18102123D01*
X2449500Y-18102135D01*
X1000000Y-18102135D01*
X1000000Y-6403945D01*
X1899500Y-6403945D01*
X1899500Y-6596054D01*
X1929553Y-6785802D01*
X1988916Y-6968506D01*
X1988918Y-6968509D01*
X2076135Y-7139681D01*
X2189055Y-7295102D01*
X2324898Y-7430945D01*
X2480319Y-7543865D01*
X2623687Y-7616915D01*
X2651493Y-7631083D01*
X2742845Y-7660764D01*
X2834199Y-7690447D01*
X3023945Y-7720500D01*
X3023946Y-7720500D01*
X3216054Y-7720500D01*
X3216055Y-7720500D01*
X3405801Y-7690447D01*
X3588509Y-7631082D01*
X3759681Y-7543865D01*
X3915102Y-7430945D01*
X4050945Y-7295102D01*
X4163865Y-7139681D01*
X4251082Y-6968509D01*
X4251084Y-6968504D01*
X4272069Y-6903919D01*
X4311506Y-6846243D01*
X4375864Y-6819044D01*
X4444711Y-6830958D01*
X4496187Y-6878202D01*
X4507931Y-6903919D01*
X4528915Y-6968504D01*
X4528918Y-6968509D01*
X4616135Y-7139681D01*
X4729055Y-7295102D01*
X4864898Y-7430945D01*
X5020319Y-7543865D01*
X5163687Y-7616915D01*
X5191493Y-7631083D01*
X5282845Y-7660764D01*
X5374199Y-7690447D01*
X5563945Y-7720500D01*
X5563946Y-7720500D01*
X5756054Y-7720500D01*
X5756055Y-7720500D01*
X5931233Y-7692754D01*
X6000525Y-7701708D01*
X6038311Y-7727546D01*
X7175139Y-8864374D01*
X7175149Y-8864385D01*
X7179479Y-8868715D01*
X7179480Y-8868716D01*
X7291284Y-8980520D01*
X7356917Y-9018412D01*
X7378095Y-9030639D01*
X7378097Y-9030641D01*
X7398667Y-9042517D01*
X7428215Y-9059577D01*
X7580943Y-9100500D01*
X7739057Y-9100500D01*
X13025501Y-9100500D01*
X13092540Y-9120185D01*
X13138295Y-9172989D01*
X13149501Y-9224500D01*
X13149501Y-9397876D01*
X13155908Y-9457483D01*
X13206202Y-9592328D01*
X13206206Y-9592335D01*
X13292452Y-9707544D01*
X13292455Y-9707547D01*
X13407664Y-9793793D01*
X13407671Y-9793797D01*
X13542517Y-9844091D01*
X13542516Y-9844091D01*
X13549444Y-9844835D01*
X13602127Y-9850500D01*
X15397872Y-9850499D01*
X15457483Y-9844091D01*
X15592331Y-9793796D01*
X15707546Y-9707546D01*
X15793796Y-9592331D01*
X15842810Y-9460916D01*
X15884681Y-9404984D01*
X15950145Y-9380566D01*
X16018418Y-9395417D01*
X16046673Y-9416569D01*
X16160213Y-9530109D01*
X16332179Y-9655048D01*
X16332181Y-9655049D01*
X16332184Y-9655051D01*
X16521588Y-9751557D01*
X16723757Y-9817246D01*
X16933713Y-9850500D01*
X16933714Y-9850500D01*
X17146286Y-9850500D01*
X17146287Y-9850500D01*
X17356243Y-9817246D01*
X17558412Y-9751557D01*
X17747816Y-9655051D01*
X17834138Y-9592335D01*
X17919786Y-9530109D01*
X17919788Y-9530106D01*
X17919792Y-9530104D01*
X18070104Y-9379792D01*
X18070106Y-9379788D01*
X18070109Y-9379786D01*
X18195048Y-9207820D01*
X18195047Y-9207820D01*
X18195051Y-9207816D01*
X18199514Y-9199054D01*
X18247488Y-9148259D01*
X18315308Y-9131463D01*
X18381444Y-9153999D01*
X18420486Y-9199056D01*
X18424951Y-9207820D01*
X18549890Y-9379786D01*
X18700213Y-9530109D01*
X18872179Y-9655048D01*
X18872181Y-9655049D01*
X18872184Y-9655051D01*
X19061588Y-9751557D01*
X19263757Y-9817246D01*
X19473713Y-9850500D01*
X19473714Y-9850500D01*
X19686286Y-9850500D01*
X19686287Y-9850500D01*
X19896243Y-9817246D01*
X20098412Y-9751557D01*
X20287816Y-9655051D01*
X20374138Y-9592335D01*
X20459786Y-9530109D01*
X20459788Y-9530106D01*
X20459792Y-9530104D01*
X20610104Y-9379792D01*
X20610106Y-9379788D01*
X20610109Y-9379786D01*
X20735048Y-9207820D01*
X20735047Y-9207820D01*
X20735051Y-9207816D01*
X20831557Y-9018412D01*
X20897246Y-8816243D01*
X20930500Y-8606287D01*
X20930500Y-8393713D01*
X20897246Y-8183757D01*
X20831557Y-7981588D01*
X20735051Y-7792184D01*
X20735049Y-7792181D01*
X20735048Y-7792179D01*
X20610109Y-7620213D01*
X20459786Y-7469890D01*
X20287820Y-7344951D01*
X20098414Y-7248444D01*
X20098413Y-7248443D01*
X20098412Y-7248443D01*
X19896243Y-7182754D01*
X19896241Y-7182753D01*
X19896240Y-7182753D01*
X19734957Y-7157208D01*
X19686287Y-7149500D01*
X19473713Y-7149500D01*
X19425042Y-7157208D01*
X19263760Y-7182753D01*
X19061585Y-7248444D01*
X18872179Y-7344951D01*
X18700213Y-7469890D01*
X18549890Y-7620213D01*
X18424949Y-7792182D01*
X18420484Y-7800946D01*
X18372509Y-7851742D01*
X18304688Y-7868536D01*
X18238553Y-7845998D01*
X18199516Y-7800946D01*
X18195050Y-7792182D01*
X18070109Y-7620213D01*
X17919786Y-7469890D01*
X17747820Y-7344951D01*
X17558414Y-7248444D01*
X17558413Y-7248443D01*
X17558412Y-7248443D01*
X17356243Y-7182754D01*
X17356241Y-7182753D01*
X17356240Y-7182753D01*
X17194957Y-7157208D01*
X17146287Y-7149500D01*
X16933713Y-7149500D01*
X16885042Y-7157208D01*
X16723760Y-7182753D01*
X16521585Y-7248444D01*
X16332179Y-7344951D01*
X16160215Y-7469889D01*
X16046673Y-7583431D01*
X15985350Y-7616915D01*
X15915658Y-7611931D01*
X15859725Y-7570059D01*
X15842810Y-7539082D01*
X15793797Y-7407671D01*
X15793793Y-7407664D01*
X15707547Y-7292455D01*
X15707544Y-7292452D01*
X15592335Y-7206206D01*
X15592328Y-7206202D01*
X15457482Y-7155908D01*
X15457483Y-7155908D01*
X15397883Y-7149501D01*
X15397881Y-7149500D01*
X15397873Y-7149500D01*
X15397864Y-7149500D01*
X13602129Y-7149500D01*
X13602123Y-7149501D01*
X13542516Y-7155908D01*
X13407671Y-7206202D01*
X13407664Y-7206206D01*
X13292455Y-7292452D01*
X13292452Y-7292455D01*
X13206206Y-7407664D01*
X13206202Y-7407671D01*
X13155908Y-7542517D01*
X13149501Y-7602116D01*
X13149500Y-7602135D01*
X13149500Y-7775500D01*
X13129815Y-7842539D01*
X13077011Y-7888294D01*
X13025500Y-7899500D01*
X7960097Y-7899500D01*
X7893058Y-7879815D01*
X7872416Y-7863181D01*
X6887546Y-6878311D01*
X6854061Y-6816988D01*
X6852754Y-6771234D01*
X6880500Y-6596055D01*
X6880500Y-6403945D01*
X6850447Y-6214199D01*
X6820424Y-6121797D01*
X6791083Y-6031493D01*
X6703864Y-5860318D01*
X6590945Y-5704898D01*
X6455102Y-5569055D01*
X6299681Y-5456135D01*
X6128506Y-5368916D01*
X5945802Y-5309553D01*
X5850928Y-5294526D01*
X5756055Y-5279500D01*
X5563945Y-5279500D01*
X5500696Y-5289517D01*
X5374197Y-5309553D01*
X5191493Y-5368916D01*
X5020318Y-5456135D01*
X4931645Y-5520560D01*
X4864898Y-5569055D01*
X4864896Y-5569057D01*
X4864895Y-5569057D01*
X4729057Y-5704895D01*
X4729057Y-5704896D01*
X4729055Y-5704898D01*
X4680560Y-5771645D01*
X4616135Y-5860318D01*
X4528916Y-6031493D01*
X4507931Y-6096081D01*
X4468494Y-6153756D01*
X4404135Y-6180955D01*
X4335289Y-6169041D01*
X4283813Y-6121797D01*
X4272069Y-6096081D01*
X4251083Y-6031493D01*
X4163864Y-5860318D01*
X4050945Y-5704898D01*
X3915102Y-5569055D01*
X3759681Y-5456135D01*
X3588506Y-5368916D01*
X3405802Y-5309553D01*
X3310928Y-5294526D01*
X3216055Y-5279500D01*
X3023945Y-5279500D01*
X2960696Y-5289517D01*
X2834197Y-5309553D01*
X2651493Y-5368916D01*
X2480318Y-5456135D01*
X2391645Y-5520560D01*
X2324898Y-5569055D01*
X2324896Y-5569057D01*
X2324895Y-5569057D01*
X2189057Y-5704895D01*
X2189057Y-5704896D01*
X2189055Y-5704898D01*
X2140560Y-5771645D01*
X2076135Y-5860318D01*
X1988916Y-6031493D01*
X1929553Y-6214197D01*
X1899500Y-6403945D01*
X1000000Y-6403945D01*
X1000000Y-3893713D01*
X19189500Y-3893713D01*
X19189500Y-4106286D01*
X19222753Y-4316239D01*
X19288444Y-4518414D01*
X19384951Y-4707820D01*
X19509890Y-4879786D01*
X19660213Y-5030109D01*
X19832179Y-5155048D01*
X19832181Y-5155049D01*
X19832184Y-5155051D01*
X20021588Y-5251557D01*
X20223757Y-5317246D01*
X20433713Y-5350500D01*
X20433714Y-5350500D01*
X20646286Y-5350500D01*
X20646287Y-5350500D01*
X20856243Y-5317246D01*
X21058412Y-5251557D01*
X21247816Y-5155051D01*
X21269789Y-5139086D01*
X21419786Y-5030109D01*
X21419788Y-5030106D01*
X21419792Y-5030104D01*
X21570104Y-4879792D01*
X21570106Y-4879788D01*
X21570109Y-4879786D01*
X21695048Y-4707820D01*
X21695047Y-4707820D01*
X21695051Y-4707816D01*
X21699514Y-4699054D01*
X21747488Y-4648259D01*
X21815308Y-4631463D01*
X21881444Y-4653999D01*
X21920486Y-4699056D01*
X21924951Y-4707820D01*
X22049890Y-4879786D01*
X22200213Y-5030109D01*
X22372179Y-5155048D01*
X22372181Y-5155049D01*
X22372184Y-5155051D01*
X22561588Y-5251557D01*
X22763757Y-5317246D01*
X22973713Y-5350500D01*
X22973714Y-5350500D01*
X23186286Y-5350500D01*
X23186287Y-5350500D01*
X23396243Y-5317246D01*
X23598412Y-5251557D01*
X23787816Y-5155051D01*
X23809789Y-5139086D01*
X23959786Y-5030109D01*
X23959788Y-5030106D01*
X23959792Y-5030104D01*
X24110104Y-4879792D01*
X24110106Y-4879788D01*
X24110109Y-4879786D01*
X24235048Y-4707820D01*
X24235047Y-4707820D01*
X24235051Y-4707816D01*
X24331557Y-4518412D01*
X24397246Y-4316243D01*
X24430500Y-4106287D01*
X24430500Y-3893713D01*
X24397246Y-3683757D01*
X24331557Y-3481588D01*
X24235051Y-3292184D01*
X24235049Y-3292181D01*
X24235048Y-3292179D01*
X24110109Y-3120213D01*
X23959786Y-2969890D01*
X23787820Y-2844951D01*
X23598414Y-2748444D01*
X23598413Y-2748443D01*
X23598412Y-2748443D01*
X23396243Y-2682754D01*
X23396241Y-2682753D01*
X23396240Y-2682753D01*
X23234957Y-2657208D01*
X23186287Y-2649500D01*
X22973713Y-2649500D01*
X22925042Y-2657208D01*
X22763760Y-2682753D01*
X22561585Y-2748444D01*
X22372179Y-2844951D01*
X22200213Y-2969890D01*
X22049890Y-3120213D01*
X21924949Y-3292182D01*
X21920484Y-3300946D01*
X21872509Y-3351742D01*
X21804688Y-3368536D01*
X21738553Y-3345998D01*
X21699516Y-3300946D01*
X21695050Y-3292182D01*
X21570109Y-3120213D01*
X21419786Y-2969890D01*
X21247820Y-2844951D01*
X21058414Y-2748444D01*
X21058413Y-2748443D01*
X21058412Y-2748443D01*
X20856243Y-2682754D01*
X20856241Y-2682753D01*
X20856240Y-2682753D01*
X20694957Y-2657208D01*
X20646287Y-2649500D01*
X20433713Y-2649500D01*
X20385042Y-2657208D01*
X20223760Y-2682753D01*
X20021585Y-2748444D01*
X19832179Y-2844951D01*
X19660213Y-2969890D01*
X19509890Y-3120213D01*
X19384951Y-3292179D01*
X19288444Y-3481585D01*
X19222753Y-3683760D01*
X19189500Y-3893713D01*
X1000000Y-3893713D01*
X1000000Y-1759176D01*
X1019685Y-1692137D01*
X1036319Y-1671495D01*
X1671495Y-1036319D01*
X1732818Y-1002834D01*
X1759176Y-1000000D01*
X28240824Y-1000000D01*
X28307863Y-1019685D01*
G37*
G04 #@! TD.AperFunction*
G04 #@! TD*
M02*
