G04 #@! TF.GenerationSoftware,KiCad,Pcbnew,9.0.2+dfsg-1*
G04 #@! TF.CreationDate,2026-09-20T02:23:28+07:00*
G04 #@! TF.ProjectId,quad-tic-timer,71756164-2d74-4696-932d-74696d65722e,rev?*
G04 #@! TF.SameCoordinates,Original*
G04 #@! TF.FileFunction,Other,User*
%FSLAX46Y46*%
G04 Gerber Fmt 4.6, Leading zero omitted, Abs format (unit mm)*
G04 Created by KiCad (PCBNEW 9.0.2+dfsg-1) date 2026-09-20 02:23:28*
%MOMM*%
%LPD*%
G01*
G04 APERTURE LIST*
%ADD10C,0.050000*%
G04 APERTURE END LIST*
D10*
G04 #@! TO.C,R5*
X5820000Y-12550000D02*
X9180000Y-12550000D01*
X5820000Y-14450000D02*
X5820000Y-12550000D01*
X9180000Y-12550000D02*
X9180000Y-14450000D01*
X9180000Y-14450000D02*
X5820000Y-14450000D01*
G04 #@! TO.C,U1*
X10300000Y-13040000D02*
X11800000Y-13040000D01*
X10300000Y-17960000D02*
X10300000Y-13040000D01*
X11800000Y-12800000D02*
X16200000Y-12800000D01*
X11800000Y-13040000D02*
X11800000Y-12800000D01*
X11800000Y-17960000D02*
X10300000Y-17960000D01*
X11800000Y-18200000D02*
X11800000Y-17960000D01*
X16200000Y-12800000D02*
X16200000Y-13040000D01*
X16200000Y-13040000D02*
X17700000Y-13040000D01*
X16200000Y-17960000D02*
X16200000Y-18200000D01*
X16200000Y-18200000D02*
X11800000Y-18200000D01*
X17700000Y-13040000D02*
X17700000Y-17960000D01*
X17700000Y-17960000D02*
X16200000Y-17960000D01*
G04 #@! TO.C,R1*
X7050000Y-20320000D02*
X8950000Y-20320000D01*
X7050000Y-23680000D02*
X7050000Y-20320000D01*
X8950000Y-20320000D02*
X8950000Y-23680000D01*
X8950000Y-23680000D02*
X7050000Y-23680000D01*
G04 #@! TO.C,R3*
X16650000Y-20320000D02*
X18550000Y-20320000D01*
X16650000Y-23680000D02*
X16650000Y-20320000D01*
X18550000Y-20320000D02*
X18550000Y-23680000D01*
X18550000Y-23680000D02*
X16650000Y-23680000D01*
G04 #@! TO.C,RV1*
X640000Y-3840000D02*
X10680000Y-3840000D01*
X10680000Y-9170000D01*
X640000Y-9170000D01*
X640000Y-3840000D01*
G04 #@! TO.C,JPWR*
X2030000Y-17230000D02*
X2030000Y-23320000D01*
X2030000Y-23320000D02*
X5570000Y-23320000D01*
X5570000Y-17230000D02*
X2030000Y-17230000D01*
X5570000Y-23320000D02*
X5570000Y-17230000D01*
G04 #@! TO.C,D2*
X11850000Y-25120000D02*
X13750000Y-25120000D01*
X11850000Y-28480000D02*
X11850000Y-25120000D01*
X13750000Y-25120000D02*
X13750000Y-28480000D01*
X13750000Y-28480000D02*
X11850000Y-28480000D01*
G04 #@! TO.C,R2*
X11850000Y-20320000D02*
X13750000Y-20320000D01*
X11850000Y-23680000D02*
X11850000Y-20320000D01*
X13750000Y-20320000D02*
X13750000Y-23680000D01*
X13750000Y-23680000D02*
X11850000Y-23680000D01*
G04 #@! TO.C,JP1*
X12730000Y-6730000D02*
X12730000Y-10270000D01*
X12730000Y-10270000D02*
X21350000Y-10270000D01*
X21350000Y-6730000D02*
X12730000Y-6730000D01*
X21350000Y-10270000D02*
X21350000Y-6730000D01*
G04 #@! TO.C,C1*
X18800000Y-12520000D02*
X22200000Y-12520000D01*
X18800000Y-14480000D02*
X18800000Y-12520000D01*
X22200000Y-12520000D02*
X22200000Y-14480000D01*
X22200000Y-14480000D02*
X18800000Y-14480000D01*
G04 #@! TO.C,JEXT*
X16230000Y-2230000D02*
X16230000Y-5770000D01*
X16230000Y-5770000D02*
X24850000Y-5770000D01*
X24850000Y-2230000D02*
X16230000Y-2230000D01*
X24850000Y-5770000D02*
X24850000Y-2230000D01*
G04 #@! TO.C,R4*
X21450000Y-20320000D02*
X23350000Y-20320000D01*
X21450000Y-23680000D02*
X21450000Y-20320000D01*
X23350000Y-20320000D02*
X23350000Y-23680000D01*
X23350000Y-23680000D02*
X21450000Y-23680000D01*
G04 #@! TO.C,D4*
X21450000Y-25120000D02*
X23350000Y-25120000D01*
X21450000Y-28480000D02*
X21450000Y-25120000D01*
X23350000Y-25120000D02*
X23350000Y-28480000D01*
X23350000Y-28480000D02*
X21450000Y-28480000D01*
G04 #@! TO.C,C2*
X5800000Y-15520000D02*
X9200000Y-15520000D01*
X5800000Y-17480000D02*
X5800000Y-15520000D01*
X9200000Y-15520000D02*
X9200000Y-17480000D01*
X9200000Y-17480000D02*
X5800000Y-17480000D01*
G04 #@! TO.C,D1*
X7050000Y-25120000D02*
X8950000Y-25120000D01*
X7050000Y-28480000D02*
X7050000Y-25120000D01*
X8950000Y-25120000D02*
X8950000Y-28480000D01*
X8950000Y-28480000D02*
X7050000Y-28480000D01*
G04 #@! TO.C,JOUT*
X24730000Y-8230000D02*
X24730000Y-24470000D01*
X24730000Y-24470000D02*
X28270000Y-24470000D01*
X28270000Y-8230000D02*
X24730000Y-8230000D01*
X28270000Y-24470000D02*
X28270000Y-8230000D01*
G04 #@! TO.C,D3*
X16650000Y-25120000D02*
X18550000Y-25120000D01*
X16650000Y-28480000D02*
X16650000Y-25120000D01*
X18550000Y-25120000D02*
X18550000Y-28480000D01*
X18550000Y-28480000D02*
X16650000Y-28480000D01*
G04 #@! TD*
M02*
